<!-- Generator: Adobe Illustrator 19.2.1, SVG Export Plug-In  -->
<svg version="1.1"
	 xmlns="http://www.w3.org/2000/svg" xmlns:xlink="http://www.w3.org/1999/xlink" xmlns:a="http://ns.adobe.com/AdobeSVGViewerExtensions/3.0/"
	 x="0px" y="0px" width="141.754px" height="182.663px" viewBox="0 0 141.754 182.663"
	 style="enable-background:new 0 0 141.754 182.663;" xml:space="preserve">
<style type="text/css">
	.st0{fill:#2C2C2C;}
</style>
<defs>
</defs>
<g>
	<path class="st0" d="M107.232,130.074c0,0,0.176-0.542,0.602-1.484c0.402-0.967,1.031-2.277,1.82-3.951
		c0.794-1.649,1.784-3.59,2.771-5.718c0.493-1.062,0.987-2.162,1.396-3.286c0.419-1.118,0.714-2.259,0.896-3.267
		c0.15-1.008,0.131-1.861-0.011-2.297c-0.067-0.226-0.166-0.338-0.247-0.396c-0.071-0.065-0.147-0.081-0.244-0.115
		c-0.184-0.069-0.597-0.126-1.011-0.083c-0.206-0.003-0.408,0.036-0.586,0.104c-0.182,0.063-0.364,0.132-0.564,0.293
		c-0.097,0.086-0.208,0.177-0.308,0.322c-0.029,0.029-0.055,0.066-0.079,0.108l-0.04,0.058l-0.021,0.028
		c-0.05,0.088,0.047-0.095,0.014-0.034l-0.428,0.779c-0.31,0.552-0.522,0.978-0.761,1.435c-0.232,0.43-0.494,0.988-0.745,1.484
		c-1.014,2.061-2.033,4.32-3.133,6.702c-1.103,2.382-2.282,4.891-3.646,7.474c-1.35,2.59-2.863,5.27-4.749,7.925
		c-1.879,2.65-4.105,5.293-6.818,7.664c-2.719,2.357-5.925,4.401-9.415,5.86c-3.491,1.468-7.224,2.3-10.919,2.658
		c-1.841,0.19-3.721,0.226-5.506,0.212l-1.208-0.021l-1.377-0.062c-0.929-0.034-1.806-0.124-2.718-0.191
		c-1.825-0.181-3.693-0.443-5.597-0.84c-1.908-0.418-3.846-0.976-5.764-1.723c-3.838-1.5-7.511-3.849-10.474-6.667
		c-3.006-2.802-5.404-5.963-7.484-9.175c-2.067-3.225-3.83-6.536-5.449-9.883c-1.616-3.349-3.08-6.741-4.472-10.162
		c-0.701-1.71-1.365-3.43-2.035-5.155l-0.978-2.594l-0.297-0.793l-0.221-0.646l-0.221-0.647c-0.072-0.209-0.146-0.421-0.232-0.727
		l-0.483-1.689l-0.365-1.629c-0.211-1.103-0.393-2.224-0.478-3.387c-0.189-2.312-0.084-4.756,0.449-7.178
		c0.53-2.417,1.484-4.801,2.813-6.887c1.324-2.091,2.934-3.922,4.685-5.458c3.52-3.078,7.468-5.074,11.405-6.557
		c3.951-1.474,7.942-2.487,11.945-3.164c8.01-1.31,16.031-1.594,24.071-0.911c4.022,0.356,8.045,0.946,12.118,1.969
		c2.038,0.519,4.087,1.14,6.184,1.992c1.053,0.441,2.109,0.912,3.196,1.52c0.544,0.306,1.089,0.626,1.647,1.006l0.418,0.289
		l0.208,0.146c-0.031-0.03,0.282,0.209,0.295,0.221l0.559,0.433c0.153,0.112,0.438,0.354,0.702,0.581
		c0.257,0.224,0.54,0.459,0.768,0.68c0.465,0.441,0.925,0.891,1.371,1.397c0.893,0.998,1.747,2.133,2.471,3.463
		c0.719,1.332,1.296,2.869,1.58,4.522c0.291,1.649,0.269,3.397-0.052,5.016c-0.644,3.278-2.282,5.853-4.003,7.824
		c-1.747,1.995-3.663,3.482-5.603,4.739c-3.896,2.471-7.928,4.035-11.986,5.081c-4.054,1.063-8.135,1.57-12.171,1.702
		c-8.075,0.253-15.964-0.947-23.398-3.173c-0.931-0.275-1.847-0.589-2.761-0.901c-0.931-0.349-1.699-0.574-3.02-1.176
		c-0.322-0.153-0.647-0.311-1.054-0.547c-0.406-0.243-0.854-0.506-1.504-1.07c-0.179-0.163-0.317-0.285-0.533-0.518
		c-0.184-0.195-0.392-0.437-0.622-0.761c-0.195-0.265-0.472-0.727-0.666-1.16c-0.226-0.509-0.408-1.064-0.512-1.753
		c-0.223-1.355,0.096-2.859,0.576-3.812c0.487-0.993,0.943-1.481,1.362-1.926c0.779-0.763,1.303-1.065,1.745-1.341
		c0.441-0.261,0.792-0.434,1.114-0.584c0.647-0.302,1.165-0.5,1.67-0.69c1.964-0.717,3.591-1.195,5.232-1.723
		c1.623-0.514,3.189-1.022,4.718-1.557c6.1-2.107,11.631-4.739,16.122-8.118c4.502-3.359,7.829-7.443,9.781-11.975
		c0.496-1.131,0.822-2.324,1.09-3.515c-0.102,0.353-0.011,0.018-0.024,0.062l0.031-0.137l0.064-0.274l0.129-0.547
		c0.111-0.436,0.101-0.544,0.147-0.769c0.073-0.36,0.159-0.942,0.231-1.413c0.298-1.957,0.309-3.859-0.194-5.83
		c-0.983-3.954-3.871-7.911-7.112-11.377c-3.279-3.488-6.962-6.556-10.486-9.421c-7.093-5.718-13.7-10.585-18.68-15.198
		c-2.478-2.325-4.58-4.548-6.198-6.664c-1.636-2.097-2.77-4.085-3.501-5.755c-0.704-1.691-1.032-3.05-1.162-3.97
		c-0.092-0.454-0.095-0.81-0.128-1.041C31.155,0.118,31.144,0,31.144,0s0.035,0.114,0.103,0.338
		c0.078,0.221,0.147,0.561,0.324,0.984c0.298,0.859,0.873,2.091,1.834,3.532c0.971,1.436,2.347,3.073,4.218,4.74
		c1.851,1.683,4.185,3.396,6.913,5.157c5.435,3.583,12.514,7.202,20.687,11.822c4.076,2.343,8.408,4.983,12.821,8.42
		c2.196,1.738,4.414,3.681,6.496,6.057c2.086,2.352,4.052,5.17,5.504,8.54c1.412,3.366,2.269,7.33,2.001,11.256
		c-0.093,0.994-0.169,1.89-0.421,2.984c-0.106,0.503-0.237,1.133-0.338,1.417l-0.38,1.277c-0.599,1.688-1.321,3.348-2.081,5.005
		c-1.521,3.316-3.542,6.484-5.961,9.319c-2.415,2.84-5.21,5.347-8.211,7.504c-6.016,4.329-12.803,7.267-19.604,9.56
		c-1.7,0.572-3.406,1.103-5.077,1.61c-1.649,0.504-3.352,1-4.666,1.466c-0.312,0.111-0.608,0.227-0.753,0.293
		c-0.075,0.032-0.115,0.055-0.05,0.017c0.067-0.053,0.225-0.108,0.692-0.564c0.271-0.286,0.581-0.607,0.976-1.4
		c0.387-0.755,0.664-2.036,0.473-3.174c-0.09-0.579-0.235-1.031-0.419-1.438c-0.142-0.338-0.374-0.698-0.499-0.878
		c-0.168-0.233-0.305-0.392-0.413-0.508c-0.145-0.149-0.198-0.202-0.297-0.289c-0.32-0.273-0.398-0.297-0.426-0.318
		c-0.029-0.013,0.04,0.024,0.114,0.061c0.271,0.148,1.18,0.476,1.902,0.745c0.754,0.264,1.51,0.534,2.278,0.767
		c6.11,1.968,12.723,2.781,19.236,2.327c3.253-0.228,6.483-0.742,9.572-1.551c3.066-0.84,6.045-1.96,8.457-3.468
		c1.195-0.745,2.246-1.582,2.972-2.397c0.744-0.813,1.112-1.561,1.193-1.983c0.072-0.423,0.096-0.679-0.214-1.364
		c-0.166-0.328-0.432-0.72-0.781-1.133c-0.168-0.207-0.379-0.418-0.59-0.633c-0.104-0.112-0.189-0.172-0.281-0.265
		c-0.089-0.084-0.153-0.159-0.375-0.332l-0.549-0.445c-0.078-0.064,0.14,0.106,0.012,0.009l-0.081-0.058l-0.159-0.118
		c-0.213-0.159-0.479-0.325-0.752-0.489c-0.549-0.332-1.209-0.649-1.889-0.957c-1.386-0.607-2.946-1.131-4.559-1.582
		c-3.239-0.9-6.711-1.509-10.214-1.901c-7.016-0.762-14.249-0.727-21.121,0.365c-3.429,0.549-6.779,1.337-9.851,2.5
		c-3.06,1.164-5.853,2.689-7.93,4.55c-2.099,1.86-3.366,3.981-3.806,6.353c-0.23,1.19-0.27,2.464-0.128,3.805
		c0.06,0.667,0.192,1.355,0.338,2.047l0.257,1.043l0.289,0.939c0.033,0.134,0.113,0.353,0.195,0.572l0.235,0.642l0.234,0.641
		c-0.084-0.233,0.013,0.025,0.01,0.013l0.062,0.156l0.125,0.311l0.996,2.485c0.678,1.643,1.35,3.282,2.049,4.89
		c1.39,3.223,2.83,6.37,4.36,9.379c3.052,5.988,6.511,11.553,10.597,15.192c2.033,1.836,4.2,3.117,6.59,4.004
		c1.203,0.433,2.465,0.77,3.781,1.03c1.328,0.242,2.708,0.408,4.122,0.517c0.71,0.033,1.447,0.095,2.132,0.101l1.04,0.027l1.2,0.007
		c1.419-0.009,2.726-0.049,4.025-0.2c2.582-0.284,4.981-0.863,7.121-1.798c2.142-0.936,4.054-2.182,5.787-3.698
		c1.721-1.535,3.25-3.354,4.633-5.34c2.782-3.983,4.878-8.637,6.883-13.304c1.011-2.339,2.004-4.7,3.093-7.064
		c0.285-0.605,0.528-1.153,0.85-1.796c0.306-0.621,0.622-1.269,0.884-1.76l0.409-0.788l0.401-0.709
		c0.121-0.214,0.251-0.425,0.393-0.634c0.534-0.84,1.181-1.638,1.877-2.386c1.412-1.487,3.135-2.726,5.005-3.537
		c1.871-0.81,3.853-1.243,5.799-1.292c3.894-0.083,7.657,1.352,10.478,3.914c1.402,1.278,2.552,2.836,3.316,4.49
		c0.779,1.653,1.179,3.374,1.303,4.966c0.258,3.216-0.491,5.868-1.434,7.969c-0.958,2.1-2.145,3.742-3.334,5.093
		c-1.199,1.346-2.389,2.447-3.569,3.335c-2.356,1.782-4.546,2.862-6.387,3.583c-1.853,0.692-3.339,1.092-4.369,1.268
		C107.801,130.033,107.232,130.074,107.232,130.074z"/>
</g>
<g>
	<path class="st0" d="M60.762,60.166c0,0,0.468-1.118,1.333-3.046c0.429-0.964,0.982-2.13,1.52-3.477
		c0.276-0.67,0.571-1.382,0.881-2.133c0.33-0.736,0.648-1.523,0.946-2.363c0.618-1.666,1.32-3.443,1.911-5.361
		c0.314-0.952,0.646-1.923,0.889-2.938c0.262-1.006,0.599-2.015,0.813-3.06c0.205-1.046,0.46-2.099,0.633-3.166
		c0.121-1.07,0.347-2.138,0.427-3.212c0.034-0.535,0.069-1.071,0.104-1.609l0.049-0.803l-0.021-0.795l-0.034-1.583
		c-0.038-0.52-0.105-1.031-0.152-1.544c-0.045-1.038-0.331-2-0.456-2.988c-0.129-0.474-0.256-0.946-0.354-1.423
		c-0.074-0.489-0.299-0.916-0.411-1.384c-0.602-1.808-1.281-3.596-2.322-5.188c-1.01-1.605-2.226-3.086-3.558-4.388
		c-1.3-1.349-2.77-2.429-4.137-3.464c-1.386-1.011-2.755-1.854-3.985-2.606c-1.238-0.733-2.351-1.371-3.277-1.881
		c-0.923-0.53-1.662-0.93-2.15-1.253C48.917,0.193,48.679,0.001,48.679,0c0,0,0.299,0.072,0.863,0.138
		c0.567,0.066,1.398,0.162,2.456,0.285c1.055,0.157,2.359,0.308,3.833,0.64c1.481,0.311,3.155,0.725,4.947,1.379
		c1.802,0.631,3.721,1.485,5.676,2.652c1.928,1.194,3.897,2.692,5.676,4.6c1.774,1.904,3.308,4.257,4.307,6.863
		c0.544,1.295,0.844,2.662,1.128,4.032c0.112,0.686,0.168,1.376,0.233,2.066c0.028,0.345,0.071,0.69,0.086,1.033l-0.011,1.025
		c-0.018,0.682-0.015,1.365-0.056,2.038l-0.246,1.989l-0.127,0.986l-0.198,0.959c-0.137,0.634-0.274,1.267-0.409,1.897
		c-0.293,1.249-0.697,2.436-1.055,3.621c-0.407,1.164-0.888,2.272-1.317,3.375c-0.955,2.156-1.916,4.205-3.017,6.025
		c-0.54,0.916-1.012,1.832-1.56,2.66c-0.549,0.826-1.079,1.624-1.587,2.391c-0.976,1.546-2.065,2.857-2.944,4.046
		c-0.874,1.202-1.723,2.156-2.409,2.962C61.574,59.266,60.762,60.166,60.762,60.166z"/>
</g>
<g>
	<g>
		<path class="st0" d="M1.5,181.163v-19.154h4.019c1.927,0,3.449,0.19,4.565,0.571c1.199,0.372,2.287,1.005,3.263,1.897
			c1.977,1.803,2.965,4.173,2.965,7.108c0,2.944-1.03,5.326-3.089,7.145c-1.034,0.91-2.117,1.543-3.25,1.898
			c-1.059,0.355-2.56,0.533-4.503,0.533H1.5z M4.391,178.446h1.303c1.298,0,2.377-0.137,3.238-0.409
			c0.86-0.29,1.637-0.749,2.332-1.377c1.422-1.299,2.134-2.99,2.134-5.074c0-2.101-0.703-3.804-2.109-5.111
			c-1.266-1.166-3.13-1.749-5.595-1.749H4.391V178.446z"/>
		<path class="st0" d="M5.47,182.663H0v-22.154h5.519c2.112,0,3.764,0.213,5.049,0.651c1.366,0.424,2.655,1.172,3.791,2.211
			c2.291,2.089,3.453,4.854,3.453,8.215c0,3.379-1.21,6.162-3.596,8.27c-1.189,1.047-2.465,1.788-3.794,2.206
			C9.226,182.463,7.597,182.663,5.47,182.663z M5.891,166.227v10.719c1.049-0.013,1.918-0.126,2.588-0.338
			c0.643-0.218,1.233-0.566,1.779-1.061c1.102-1.005,1.64-2.303,1.64-3.961c0-1.68-0.533-2.992-1.63-4.013
			C9.329,166.709,7.856,166.255,5.891,166.227z"/>
	</g>
	<g>
		<path class="st0" d="M19.947,181.163v-20.457l13.969,14.614v-13.311h2.891v20.32l-13.969-14.576v13.41H19.947z"/>
		<polygon class="st0" points="38.306,182.663 35.049,182.663 24.337,171.486 24.337,182.663 18.447,182.663 18.447,160.509 
			21.709,160.509 32.416,171.58 32.416,160.509 38.306,160.509 		"/>
	</g>
	<g>
		<path class="st0" d="M52.797,176.511l-4.02-9.229l-4.181,9.229l-2.134,4.652h-3.114l9.478-20.357l9.143,20.357h-3.163
			L52.797,176.511z"/>
		<path class="st0" d="M60.288,182.663h-6.467l-2.01-4.652l-3.066-7.052l-3.186,7.052l-2.134,4.652h-6.429l10.314-22.154h3.028
			L60.288,182.663z"/>
	</g>
	<g>
		<path class="st0" d="M71.094,169.65l7.456-7.642h3.857l-8.659,8.672l8.709,10.482h-3.87l-6.897-8.523l-0.596,0.596v7.927h-2.891
			v-19.154h2.891V169.65z"/>
		<polygon class="st0" points="85.653,182.663 77.871,182.663 72.594,176.143 72.594,182.663 66.703,182.663 66.703,160.509 
			72.594,160.509 72.594,165.965 77.918,160.509 86.024,160.509 75.775,170.773 		"/>
	</g>
	<g>
		<path class="st0" d="M96.289,176.511l-4.02-9.229l-4.181,9.229l-2.134,4.652h-3.113l9.478-20.357l9.143,20.357h-3.163
			L96.289,176.511z"/>
		<path class="st0" d="M103.78,182.663h-6.468l-2.01-4.652l-3.065-7.052l-3.187,7.052l-2.134,4.652h-6.428l10.313-22.154h3.027
			L103.78,182.663z"/>
	</g>
	<g>
		<path class="st0" d="M113.421,164.726h-6.674v4.602h6.438v2.717h-6.438v9.118h-2.891v-19.154h9.564V164.726z"/>
		<polygon class="st0" points="108.247,182.663 102.356,182.663 102.356,160.509 114.921,160.509 114.921,166.226 108.247,166.226 
			108.247,167.828 114.685,167.828 114.685,173.545 108.247,173.545 		"/>
	</g>
	<g>
		<path class="st0" d="M126.335,164.726h-6.674v4.602h6.438v2.717h-6.438v9.118h-2.891v-19.154h9.564V164.726z"/>
		<polygon class="st0" points="121.161,182.663 115.271,182.663 115.271,160.509 127.835,160.509 127.835,166.226 121.161,166.226 
			121.161,167.828 127.6,167.828 127.6,173.545 121.161,173.545 		"/>
	</g>
	<g>
		<path class="st0" d="M140.254,164.726h-7.679v4.602h7.456v2.717h-7.456v6.401h7.679v2.717h-10.569v-19.154h10.569V164.726z"/>
		<polygon class="st0" points="141.754,182.663 128.185,182.663 128.185,160.509 141.754,160.509 141.754,166.226 134.075,166.226 
			134.075,167.828 141.531,167.828 141.531,173.545 134.075,173.545 134.075,176.946 141.754,176.946 		"/>
	</g>
</g>
</svg>