<!-- Generator: Adobe Illustrator 19.2.1, SVG Export Plug-In  -->
<svg version="1.1"
	 xmlns="http://www.w3.org/2000/svg" xmlns:xlink="http://www.w3.org/1999/xlink" xmlns:a="http://ns.adobe.com/AdobeSVGViewerExtensions/3.0/"
	 x="0px" y="0px" width="44px" height="50px" viewBox="0 0 44 50" style="enable-background:new 0 0 44 50;" xml:space="preserve">
<style type="text/css">
	.st0{fill:#FFFFFF;}
</style>
<defs>
</defs>
<path class="st0" d="M44,12.508L22,0L0,12.453v25.019l16.496,9.393v-25.21c0-0.351,0.284-0.635,0.635-0.635
	c0.351,0,0.632,0.284,0.632,0.635v25.932l1.591,0.906V21.806c0-0.461,0.384-0.839,0.85-0.839c0.464,0,0.839,0.377,0.839,0.839
	v27.648L22,50l0.811-0.453V19.161h-6.452c-0.346,0-0.625-0.288-0.625-0.639c0-0.342,0.279-0.621,0.625-0.621h6.452v-1.238h-6.851
	c-0.422,0-0.763-0.346-0.763-0.763c0-0.431,0.342-0.763,0.763-0.763h6.851v-1.389c-2.092,0-9.851,0-9.862,0
	c-1.338-0.009-2.403,0.328-3.091,0.999c-0.528,0.515-0.814,1.198-0.823,1.992c-0.011,0.914,0.371,1.469,0.695,1.771
	c0.404,0.377,0.936,0.581,1.447,0.541c0.79-0.053,1.649-0.612,1.762-1.549c0.04-0.333-0.025-0.617-0.182-0.817
	c-0.129-0.155-0.326-0.257-0.541-0.275c-0.355-0.022-0.523,0.164-0.563,0.226c-0.058,0.071-0.08,0.151-0.058,0.204
	c0.124,0.324-0.038,0.692-0.359,0.816c-0.324,0.129-0.688-0.035-0.814-0.355c-0.184-0.461-0.104-0.994,0.211-1.416
	c0.375-0.515,1.003-0.785,1.684-0.737c0.552,0.049,1.069,0.311,1.418,0.737c0.266,0.324,0.563,0.896,0.459,1.771
	c-0.195,1.611-1.615,2.556-2.915,2.654c-0.872,0.058-1.751-0.257-2.412-0.879c-0.717-0.679-1.105-1.642-1.087-2.716
	c0.009-1.132,0.426-2.13,1.198-2.876c0.932-0.905,2.316-1.38,3.985-1.353h21.75v3.399c-5.163,1.016-7.466,1.913-7.462,15.003v13.228
	c0.003,1.04,0.027,2.003,0.065,2.911L44,37.697V12.508z"/>
</svg>