<!-- Generator: Adobe Illustrator 19.2.1, SVG Export Plug-In  -->
<svg version="1.1"
	 xmlns="http://www.w3.org/2000/svg" xmlns:xlink="http://www.w3.org/1999/xlink" xmlns:a="http://ns.adobe.com/AdobeSVGViewerExtensions/3.0/"
	 x="0px" y="0px" width="369.123px" height="101.896px" viewBox="0 0 369.123 101.896"
	 style="enable-background:new 0 0 369.123 101.896;" xml:space="preserve">
<style type="text/css">
	.st0{fill:#00A79D;}
	.st1{fill:#FFFFFF;}
	.st2{font-family:'PTSerif-Regular';}
	.st3{font-size:19.2381px;}
</style>
<defs>
</defs>
<path d="M90.589,58.359c-0.858,1.483-1.954,2.605-3.289,3.363c-1.335,0.759-3.405,1.138-6.207,1.138
	c-3.759,0-6.62-1.212-8.581-3.638c-1.962-2.426-2.942-6.164-2.942-11.213V47.94H55.524v0.083c0,8.342,2.333,14.771,6.998,19.288
	c4.666,4.518,10.856,6.775,18.571,6.775c5.967,0,10.896-1.178,14.787-3.536c3.89-2.357,6.808-5.085,8.754-8.185V47.94H90.589V58.359
	z"/>
<path class="st0" d="M69.57,25.929c0-4.95,0.972-8.638,2.918-11.063c1.945-2.426,4.632-3.639,8.061-3.639
	c3.495,0,6.091,0.934,7.79,2.801c1.698,1.867,2.597,4.832,2.695,8.895h13.205l0.099-0.297c-0.165-7.278-2.242-12.869-6.231-16.771
	C94.116,1.952,88.132,0,80.153,0c-7.418,0-13.378,2.275-17.878,6.825c-4.5,4.55-6.751,10.963-6.751,19.238V44.94H69.57V25.929z"/>
<rect x="81.093" y="35.56" class="st0" width="23.541" height="9.38"/>
<path class="st0" d="M127.434,26.177c0-5.017,0.841-8.762,2.522-11.237s4.104-3.713,7.27-3.713c3.692,0,6.281,1.042,7.765,3.127
	c1.484,2.085,2.127,5.494,1.929,10.226h13.552l0.148-0.297c-0.133-8.012-2.151-14.062-6.059-18.15
	C150.654,2.045,144.875,0,137.226,0c-7.221,0-12.982,2.3-17.285,6.899c-4.303,4.599-6.454,11.07-6.454,19.412V44.94h13.947V26.177z"
	/>
<path d="M120.163,67.236c4.451,4.567,10.402,6.85,17.854,6.85c7.45,0,13.089-2.011,16.914-6.034
	c3.824-4.022,5.703-9.99,5.638-17.903l-0.148-0.297H146.87c0.164,4.748-0.421,8.104-1.756,10.064
	c-1.336,1.962-3.701,2.943-7.097,2.943c-3.463,0-6.092-1.237-7.889-3.712c-1.782-2.453-2.677-6.192-2.692-11.207h-13.946
	C113.511,56.258,115.733,62.691,120.163,67.236z"/>
<polygon points="164.427,73.047 178.621,73.047 182.479,57.667 201.47,57.667 205.377,73.047 219.572,73.047 212.518,47.94 
	171.497,47.94 "/>
<polygon class="st0" points="191.826,20.97 192.122,20.97 198.22,44.94 211.676,44.94 199.343,1.039 184.704,1.039 172.342,44.94 
	185.728,44.94 "/>
<rect x="227.83" y="1.039" class="st0" width="5.984" height="43.901"/>
<polygon points="227.83,73.047 262.896,73.047 262.896,68.003 233.815,68.003 233.815,47.94 227.83,47.94 "/>
<polygon class="st0" points="293.212,10.584 293.509,10.584 303.967,44.94 309.83,44.94 296.08,1.039 290.69,1.039 276.79,44.94 
	282.662,44.94 "/>
<polygon points="267.891,73.047 274.023,73.047 280.155,53.067 306.417,53.067 312.5,73.047 318.633,73.047 310.77,47.94 
	275.84,47.94 "/>
<path d="M362.896,53.166c0,4.697-1.179,8.345-3.536,10.941c-2.357,2.597-5.63,3.896-9.816,3.896h-15.134V47.94h-5.935v25.107h21.068
	c5.901,0,10.591-1.721,14.07-5.164c3.478-3.443,5.218-8.393,5.218-14.85c0-1.789-0.197-3.483-0.57-5.094h-5.971
	C362.686,49.532,362.896,51.268,362.896,53.166z"/>
<path class="st0" d="M334.409,38.378h16.073c4.088,0,7.179,1.373,9.273,4.119c0.573,0.752,1.06,1.57,1.476,2.443h6.073
	c-0.506-1.232-1.127-2.409-1.886-3.519c-2.274-3.328-5.275-5.37-9.001-6.128c3-1.089,5.407-2.995,7.221-5.717
	c1.812-2.722,2.72-5.898,2.72-9.529c0-6.336-1.748-11.087-5.242-14.256c-3.495-3.168-8.342-4.752-14.54-4.752h-18.101V44.94h5.935
	V38.378z M334.409,6.281h12.166c4.483,0,7.904,1.14,10.263,3.418c2.356,2.28,3.536,5.665,3.536,10.157
	c0,4.294-1.056,7.589-3.166,9.885s-5.028,3.493-8.754,3.592h-14.045V6.281z"/>
<g>
	<g>
		<path d="M66.05,83.196c-0.013,0.513-0.036,1.029-0.067,1.549c-0.032,0.52-0.08,1.042-0.144,1.568h-0.5l-0.789-2.116h-4.194v5.098
			h3.136l0.75-1.424h0.481c0.077,1.27,0.077,2.565,0,3.886h-0.481l-0.75-1.462h-3.136v5.367h4.425l0.942-2.309h0.481
			c0.09,0.539,0.154,1.084,0.192,1.635c0.039,0.552,0.045,1.109,0.02,1.674h-9.484v-0.558c0.449-0.205,0.974-0.359,1.577-0.461
			V84.235c-0.256-0.051-0.519-0.119-0.789-0.202c-0.27-0.083-0.532-0.176-0.789-0.279v-0.558H66.05z"/>
		<path d="M72.148,96.894l-3.751-8.888c-0.372-0.128-0.712-0.282-1.02-0.461v-0.5h4.04v0.481c-0.167,0.09-0.337,0.176-0.51,0.26
			c-0.173,0.083-0.369,0.157-0.587,0.221l2.223,5.791l0.383,1.193h0.039l0.288-1.212l2.05-5.771
			c-0.206-0.051-0.395-0.115-0.568-0.192c-0.173-0.077-0.336-0.167-0.49-0.269v-0.5h3.271v0.5c-0.128,0.09-0.286,0.173-0.472,0.25
			c-0.186,0.077-0.394,0.147-0.625,0.211l-3.405,8.657L72.148,96.894z"/>
		<path d="M78.112,91.853c0-0.808,0.106-1.523,0.317-2.145c0.212-0.622,0.517-1.147,0.914-1.578c0.397-0.43,0.875-0.756,1.433-0.981
			c0.558-0.224,1.177-0.337,1.856-0.337c0.795,0,1.481,0.122,2.059,0.366s1.048,0.587,1.414,1.029s0.635,0.972,0.808,1.587
			c0.173,0.616,0.26,1.302,0.26,2.059c0,1.616-0.411,2.86-1.231,3.732s-1.924,1.308-3.309,1.308c-0.77,0-1.437-0.119-2-0.356
			c-0.564-0.237-1.033-0.577-1.404-1.02c-0.373-0.442-0.651-0.975-0.837-1.597C78.205,93.299,78.112,92.61,78.112,91.853z
			 M79.959,91.853c0,0.577,0.054,1.123,0.164,1.635c0.109,0.513,0.282,0.959,0.519,1.337c0.237,0.378,0.548,0.677,0.933,0.895
			c0.385,0.218,0.847,0.327,1.385,0.327c0.693,0,1.26-0.339,1.703-1.02c0.442-0.68,0.664-1.738,0.664-3.174
			c0-0.59-0.055-1.138-0.164-1.645c-0.109-0.506-0.279-0.949-0.51-1.327c-0.23-0.378-0.526-0.676-0.885-0.895
			c-0.359-0.218-0.789-0.327-1.289-0.327c-0.757,0-1.366,0.34-1.828,1.02C80.19,89.359,79.959,90.417,79.959,91.853z"/>
		<path d="M93.021,96.663H88.75v-0.481c0.423-0.205,0.847-0.359,1.27-0.462V83.542l-1.462-0.154v-0.5
			c0.333-0.154,0.75-0.289,1.25-0.404c0.5-0.115,0.988-0.211,1.462-0.289h0.481V95.72c0.423,0.103,0.846,0.257,1.27,0.462V96.663z"
			/>
		<path d="M95.234,92.854c0-0.808,0.019-1.6,0.058-2.376c0.039-0.776,0.058-1.549,0.058-2.318l-1.27-0.154v-0.5
			c0.41-0.154,0.83-0.289,1.26-0.404c0.43-0.115,0.85-0.211,1.26-0.289h0.481c0,0.962-0.019,1.917-0.058,2.867
			s-0.058,1.892-0.058,2.828c0,0.5,0.029,0.949,0.086,1.347s0.16,0.731,0.308,1c0.147,0.27,0.35,0.478,0.606,0.625
			c0.256,0.147,0.583,0.221,0.981,0.221c0.577,0,1.061-0.208,1.453-0.625c0.391-0.417,0.695-0.959,0.914-1.626v-5.291l-1.25-0.154
			v-0.5c0.397-0.154,0.811-0.289,1.241-0.404c0.43-0.115,0.85-0.211,1.26-0.289h0.481v8.753l1.27,0.154v0.404
			c-0.372,0.167-0.747,0.314-1.125,0.442c-0.378,0.128-0.773,0.224-1.184,0.289h-0.481l-0.134-2.29h-0.077
			c-0.064,0.27-0.176,0.542-0.336,0.818c-0.161,0.276-0.369,0.526-0.625,0.75c-0.257,0.224-0.548,0.407-0.875,0.548
			c-0.327,0.141-0.683,0.212-1.067,0.212c-0.513,0-0.965-0.061-1.356-0.183c-0.391-0.122-0.721-0.336-0.991-0.644
			c-0.27-0.308-0.475-0.722-0.616-1.241C95.304,94.306,95.234,93.649,95.234,92.854z"/>
		<path d="M105.083,87.527c0.487-0.318,1-0.543,1.539-0.676v-1.635c0.167-0.128,0.362-0.253,0.587-0.375
			c0.224-0.122,0.445-0.228,0.664-0.317h0.481v2.52h2.886v1h-2.886v5.551c0,0.766,0.122,1.308,0.366,1.627
			c0.243,0.319,0.609,0.479,1.096,0.479c0.231,0,0.52-0.016,0.866-0.048c0.347-0.032,0.641-0.093,0.885-0.183l0.135,0.289
			c-0.103,0.116-0.248,0.238-0.433,0.366c-0.186,0.128-0.397,0.25-0.635,0.365c-0.238,0.116-0.497,0.212-0.779,0.289
			c-0.282,0.077-0.571,0.116-0.866,0.116c-0.77,0-1.356-0.217-1.76-0.651s-0.606-1.136-0.606-2.107v-6.091h-1.539V87.527z"/>
		<path d="M116.992,96.663h-4.271v-0.481c0.192-0.103,0.391-0.189,0.597-0.26c0.205-0.07,0.43-0.138,0.673-0.202v-7.561l-1.27-0.154
			v-0.5c0.372-0.154,0.776-0.289,1.212-0.404c0.436-0.115,0.872-0.211,1.308-0.289h0.481v8.907c0.256,0.064,0.487,0.132,0.692,0.202
			c0.205,0.071,0.397,0.157,0.577,0.26V96.663z M113.625,83.773c0-0.346,0.112-0.622,0.337-0.827
			c0.224-0.205,0.522-0.308,0.895-0.308c0.372,0,0.667,0.103,0.885,0.308c0.218,0.205,0.327,0.481,0.327,0.827
			s-0.109,0.619-0.327,0.818c-0.218,0.199-0.513,0.298-0.885,0.298c-0.372,0-0.67-0.099-0.895-0.298
			C113.737,84.392,113.625,84.119,113.625,83.773z"/>
		<path d="M118.511,91.853c0-0.808,0.106-1.523,0.317-2.145c0.212-0.622,0.517-1.147,0.914-1.578
			c0.397-0.43,0.875-0.756,1.433-0.981c0.558-0.224,1.177-0.337,1.856-0.337c0.795,0,1.481,0.122,2.059,0.366
			s1.048,0.587,1.414,1.029s0.635,0.972,0.808,1.587c0.173,0.616,0.26,1.302,0.26,2.059c0,1.616-0.411,2.86-1.231,3.732
			s-1.924,1.308-3.309,1.308c-0.77,0-1.437-0.119-2-0.356c-0.564-0.237-1.033-0.577-1.404-1.02
			c-0.373-0.442-0.651-0.975-0.837-1.597C118.604,93.299,118.511,92.61,118.511,91.853z M120.358,91.853
			c0,0.577,0.054,1.123,0.164,1.635c0.109,0.513,0.282,0.959,0.519,1.337c0.237,0.378,0.548,0.677,0.933,0.895
			c0.385,0.218,0.847,0.327,1.385,0.327c0.693,0,1.26-0.339,1.703-1.02c0.442-0.68,0.664-1.738,0.664-3.174
			c0-0.59-0.055-1.138-0.164-1.645c-0.109-0.506-0.279-0.949-0.51-1.327c-0.23-0.378-0.526-0.676-0.885-0.895
			c-0.359-0.218-0.789-0.327-1.289-0.327c-0.757,0-1.366,0.34-1.828,1.02C120.589,89.359,120.358,90.417,120.358,91.853z"/>
		<path d="M139.462,96.663h-4.136v-0.481c0.346-0.18,0.724-0.333,1.135-0.462v-4.559c0-0.975-0.141-1.744-0.423-2.309
			s-0.795-0.847-1.539-0.847c-0.321,0-0.619,0.058-0.895,0.173c-0.276,0.115-0.519,0.272-0.731,0.471
			c-0.211,0.199-0.394,0.423-0.548,0.673c-0.154,0.25-0.276,0.51-0.365,0.779v5.617c0.397,0.077,0.782,0.231,1.154,0.462v0.481
			h-4.156v-0.481c0.321-0.167,0.744-0.32,1.27-0.462v-7.561l-1.27-0.154v-0.5c0.333-0.141,0.718-0.27,1.154-0.385
			c0.436-0.116,0.892-0.218,1.366-0.308h0.481v2.155h0.019c0.27-0.59,0.657-1.097,1.164-1.52c0.506-0.423,1.119-0.635,1.837-0.635
			c0.513,0,0.971,0.061,1.375,0.183c0.404,0.122,0.74,0.336,1.01,0.645c0.27,0.308,0.475,0.721,0.616,1.241s0.211,1.177,0.211,1.972
			v4.867c0.513,0.09,0.936,0.244,1.27,0.462V96.663z"/>
		<path d="M147.676,94.143c0,0.282,0.006,0.526,0.019,0.731s0.026,0.423,0.039,0.654l1.328,0.192v0.404
			c-0.321,0.167-0.677,0.314-1.068,0.442c-0.392,0.128-0.767,0.224-1.125,0.289h-0.481c-0.128-0.295-0.205-0.619-0.231-0.972
			c-0.026-0.353-0.045-0.741-0.058-1.164h-0.096c-0.051,0.256-0.151,0.516-0.298,0.779c-0.147,0.263-0.34,0.498-0.577,0.702
			c-0.237,0.206-0.516,0.373-0.836,0.5c-0.321,0.128-0.687,0.192-1.097,0.192c-0.783,0-1.421-0.237-1.915-0.712
			c-0.494-0.474-0.74-1.097-0.74-1.866c0-0.59,0.118-1.074,0.355-1.452s0.587-0.677,1.049-0.895
			c0.461-0.218,1.032-0.375,1.712-0.471s1.469-0.17,2.367-0.221c0.051-0.551,0.067-1.048,0.048-1.491
			c-0.019-0.443-0.09-0.821-0.211-1.135c-0.122-0.314-0.302-0.558-0.539-0.731c-0.237-0.173-0.548-0.26-0.933-0.26
			c-0.18,0-0.382,0.01-0.606,0.029c-0.224,0.019-0.446,0.074-0.664,0.164l-0.904,2.309h-0.5c-0.128-0.385-0.241-0.782-0.337-1.193
			c-0.096-0.41-0.157-0.814-0.183-1.212c0.487-0.295,1.029-0.526,1.625-0.692c0.597-0.167,1.26-0.25,1.991-0.25
			c0.654,0,1.177,0.093,1.568,0.279s0.689,0.426,0.895,0.721c0.205,0.295,0.34,0.622,0.404,0.981
			c0.064,0.359,0.096,0.718,0.096,1.077c0,0.77-0.016,1.51-0.048,2.222C147.692,92.805,147.676,93.488,147.676,94.143z
			 M143.963,95.701c0.32,0,0.603-0.064,0.846-0.192c0.244-0.128,0.449-0.282,0.616-0.462c0.167-0.179,0.301-0.362,0.404-0.548
			c0.102-0.186,0.173-0.343,0.211-0.472v-2.02c-0.744,0-1.354,0.039-1.828,0.116c-0.475,0.077-0.847,0.199-1.116,0.365
			c-0.27,0.167-0.456,0.375-0.558,0.625s-0.154,0.536-0.154,0.856c0,0.552,0.141,0.978,0.423,1.279
			C143.091,95.55,143.476,95.701,143.963,95.701z"/>
		<path d="M154.198,88.486c-0.142,0.077-0.318,0.234-0.529,0.471c-0.211,0.238-0.401,0.587-0.567,1.049v5.713
			c0.256,0.026,0.513,0.074,0.77,0.145c0.256,0.071,0.513,0.176,0.77,0.317v0.481H150.1v-0.481c0.231-0.128,0.449-0.224,0.654-0.289
			c0.205-0.064,0.41-0.122,0.616-0.173v-7.561l-1.27-0.154v-0.5c0.411-0.18,0.834-0.324,1.27-0.433
			c0.436-0.109,0.853-0.195,1.25-0.26h0.481v2.04h0.077c0.116-0.256,0.279-0.513,0.491-0.77s0.455-0.487,0.731-0.693
			c0.276-0.205,0.577-0.362,0.904-0.471c0.327-0.109,0.664-0.144,1.01-0.106c0.089,0.167,0.169,0.35,0.24,0.548
			c0.07,0.199,0.138,0.407,0.202,0.625v0.5H154.198z"/>
		<path d="M157.699,88.005c-0.192-0.051-0.369-0.115-0.529-0.192c-0.16-0.077-0.324-0.167-0.49-0.269v-0.5h4.04v0.481
			c-0.27,0.18-0.635,0.34-1.097,0.481l2.446,5.694l0.363,1.193h0.038l0.289-1.212l1.828-5.675c-0.385-0.077-0.738-0.231-1.058-0.461
			v-0.5h3.29v0.5c-0.269,0.18-0.635,0.333-1.097,0.461l-3.001,8.657c-0.308,0.821-0.6,1.484-0.875,1.991
			c-0.276,0.506-0.551,0.907-0.827,1.202s-0.558,0.51-0.846,0.645s-0.6,0.234-0.933,0.298c-0.142-0.244-0.267-0.513-0.375-0.808
			s-0.202-0.577-0.279-0.846l0.25-0.462h2.001c0.077-0.103,0.144-0.202,0.202-0.298c0.058-0.096,0.118-0.215,0.183-0.356
			c0.064-0.141,0.135-0.32,0.211-0.539c0.077-0.218,0.167-0.494,0.27-0.827L157.699,88.005z"/>
		<path d="M171.839,96.663v-0.558c0.513-0.243,1.039-0.397,1.577-0.461V84.235c-0.256-0.051-0.519-0.119-0.789-0.202
			c-0.27-0.083-0.532-0.176-0.789-0.279v-0.558h2.039c0.244,0,0.478-0.006,0.702-0.019c0.224-0.013,0.458-0.026,0.702-0.039
			s0.506-0.025,0.789-0.039c0.282-0.013,0.603-0.019,0.962-0.019c0.513,0,1.035,0.042,1.568,0.125
			c0.532,0.083,1.013,0.24,1.443,0.471c0.429,0.231,0.779,0.555,1.048,0.972c0.269,0.417,0.404,0.959,0.404,1.625
			c0,0.333-0.051,0.667-0.154,1s-0.26,0.645-0.471,0.933c-0.212,0.289-0.478,0.542-0.798,0.76c-0.321,0.218-0.699,0.378-1.135,0.481
			v0.077c0.385,0.064,0.766,0.173,1.145,0.327c0.378,0.154,0.715,0.363,1.01,0.625c0.295,0.263,0.535,0.587,0.721,0.972
			s0.279,0.846,0.279,1.385c0,0.693-0.154,1.289-0.462,1.79c-0.308,0.5-0.709,0.911-1.202,1.231
			c-0.494,0.321-1.055,0.555-1.684,0.702c-0.628,0.147-1.263,0.221-1.904,0.221c-0.449,0-0.956-0.019-1.52-0.058
			c-0.564-0.039-1.109-0.058-1.635-0.058H171.839z M176.109,89.313c0.218,0,0.478-0.009,0.779-0.029
			c0.301-0.019,0.548-0.042,0.741-0.067c0.59-0.205,1.074-0.535,1.453-0.991c0.378-0.455,0.567-0.991,0.567-1.606
			c0-0.846-0.253-1.481-0.76-1.904c-0.507-0.423-1.183-0.635-2.03-0.635c-0.398,0-0.738,0.006-1.02,0.019
			c-0.282,0.013-0.513,0.032-0.693,0.058v5.156H176.109z M176.975,95.778c0.462,0,0.895-0.07,1.299-0.212
			c0.404-0.141,0.75-0.336,1.039-0.586c0.289-0.25,0.516-0.552,0.683-0.904c0.167-0.353,0.25-0.734,0.25-1.145
			c0-0.513-0.099-0.939-0.298-1.279c-0.199-0.339-0.469-0.609-0.808-0.808c-0.34-0.199-0.731-0.337-1.174-0.414
			c-0.442-0.077-0.901-0.115-1.375-0.115h-1.443v5.31c0.18,0.052,0.395,0.09,0.645,0.116S176.437,95.778,176.975,95.778z"/>
		<path d="M188.171,96.663H183.9v-0.481c0.192-0.103,0.391-0.189,0.597-0.26c0.205-0.07,0.43-0.138,0.673-0.202v-7.561l-1.27-0.154
			v-0.5c0.372-0.154,0.776-0.289,1.212-0.404c0.436-0.115,0.872-0.211,1.308-0.289h0.481v8.907c0.256,0.064,0.487,0.132,0.692,0.202
			c0.205,0.071,0.397,0.157,0.577,0.26V96.663z M184.805,83.773c0-0.346,0.112-0.622,0.337-0.827
			c0.224-0.205,0.522-0.308,0.895-0.308c0.372,0,0.667,0.103,0.885,0.308c0.218,0.205,0.327,0.481,0.327,0.827
			s-0.109,0.619-0.327,0.818c-0.218,0.199-0.513,0.298-0.885,0.298c-0.372,0-0.67-0.099-0.895-0.298
			C184.917,84.392,184.805,84.119,184.805,83.773z"/>
		<path d="M189.691,91.853c0-0.808,0.106-1.523,0.317-2.145c0.212-0.622,0.517-1.147,0.914-1.578
			c0.397-0.43,0.875-0.756,1.433-0.981c0.558-0.224,1.177-0.337,1.856-0.337c0.795,0,1.481,0.122,2.059,0.366
			s1.048,0.587,1.414,1.029s0.635,0.972,0.808,1.587c0.173,0.616,0.26,1.302,0.26,2.059c0,1.616-0.411,2.86-1.231,3.732
			s-1.924,1.308-3.309,1.308c-0.77,0-1.437-0.119-2-0.356c-0.564-0.237-1.033-0.577-1.404-1.02
			c-0.373-0.442-0.651-0.975-0.837-1.597C189.784,93.299,189.691,92.61,189.691,91.853z M191.538,91.853
			c0,0.577,0.054,1.123,0.164,1.635c0.109,0.513,0.282,0.959,0.519,1.337c0.237,0.378,0.548,0.677,0.933,0.895
			c0.385,0.218,0.847,0.327,1.385,0.327c0.693,0,1.26-0.339,1.703-1.02c0.442-0.68,0.664-1.738,0.664-3.174
			c0-0.59-0.055-1.138-0.164-1.645c-0.109-0.506-0.279-0.949-0.51-1.327c-0.23-0.378-0.526-0.676-0.885-0.895
			c-0.359-0.218-0.789-0.327-1.289-0.327c-0.757,0-1.366,0.34-1.828,1.02C191.769,89.359,191.538,90.417,191.538,91.853z"/>
		<path d="M204.601,96.663h-4.271v-0.481c0.192-0.103,0.391-0.189,0.597-0.26c0.205-0.07,0.43-0.138,0.673-0.202v-7.561l-1.27-0.154
			v-0.5c0.372-0.154,0.776-0.289,1.212-0.404c0.436-0.115,0.872-0.211,1.308-0.289h0.481v8.907c0.256,0.064,0.487,0.132,0.692,0.202
			c0.205,0.071,0.397,0.157,0.577,0.26V96.663z M201.234,83.773c0-0.346,0.112-0.622,0.337-0.827
			c0.224-0.205,0.522-0.308,0.895-0.308c0.372,0,0.667,0.103,0.885,0.308c0.218,0.205,0.327,0.481,0.327,0.827
			s-0.109,0.619-0.327,0.818c-0.218,0.199-0.513,0.298-0.885,0.298c-0.372,0-0.67-0.099-0.895-0.298
			C201.346,84.392,201.234,84.119,201.234,83.773z"/>
		<path d="M216.432,96.663h-4.136v-0.481c0.346-0.18,0.724-0.333,1.135-0.462v-4.559c0-0.975-0.141-1.744-0.423-2.309
			s-0.795-0.847-1.539-0.847c-0.321,0-0.619,0.058-0.895,0.173c-0.276,0.115-0.519,0.272-0.731,0.471
			c-0.211,0.199-0.394,0.423-0.548,0.673c-0.154,0.25-0.276,0.51-0.365,0.779v5.617c0.397,0.077,0.782,0.231,1.154,0.462v0.481
			h-4.156v-0.481c0.321-0.167,0.744-0.32,1.27-0.462v-7.561l-1.27-0.154v-0.5c0.333-0.141,0.718-0.27,1.154-0.385
			c0.436-0.116,0.892-0.218,1.366-0.308h0.481v2.155h0.019c0.27-0.59,0.657-1.097,1.164-1.52c0.506-0.423,1.119-0.635,1.837-0.635
			c0.513,0,0.971,0.061,1.375,0.183c0.404,0.122,0.74,0.336,1.01,0.645c0.27,0.308,0.475,0.721,0.616,1.241s0.211,1.177,0.211,1.972
			v4.867c0.513,0.09,0.936,0.244,1.27,0.462V96.663z"/>
		<path d="M222.646,82.195c0.116,0,0.25,0.007,0.404,0.02s0.314,0.029,0.481,0.048c0.167,0.02,0.327,0.045,0.481,0.077
			c0.154,0.032,0.289,0.067,0.404,0.106c-0.039,0.423-0.093,0.817-0.164,1.183c-0.07,0.365-0.157,0.696-0.26,0.991h-0.481
			l-0.846-1.655c-0.372,0-0.69,0.039-0.953,0.116c-0.263,0.077-0.481,0.225-0.654,0.442c-0.173,0.218-0.302,0.532-0.385,0.943
			c-0.083,0.411-0.125,0.949-0.125,1.616v0.962h2.212v1h-2.212v7.68c0.667,0.077,1.282,0.23,1.847,0.459v0.479h-4.848v-0.479
			c0.397-0.229,0.821-0.383,1.27-0.459v-7.68h-1.462v-0.517c0.449-0.292,0.936-0.51,1.462-0.656v-0.673
			c0-0.795,0.096-1.453,0.289-1.972s0.461-0.93,0.808-1.231c0.346-0.301,0.753-0.51,1.221-0.625S222.107,82.195,222.646,82.195z"/>
		<path d="M224.127,91.853c0-0.808,0.106-1.523,0.317-2.145c0.212-0.622,0.517-1.147,0.914-1.578
			c0.397-0.43,0.875-0.756,1.433-0.981c0.558-0.224,1.177-0.337,1.856-0.337c0.795,0,1.481,0.122,2.059,0.366
			s1.048,0.587,1.414,1.029s0.635,0.972,0.808,1.587c0.173,0.616,0.26,1.302,0.26,2.059c0,1.616-0.411,2.86-1.231,3.732
			s-1.924,1.308-3.309,1.308c-0.77,0-1.437-0.119-2-0.356c-0.564-0.237-1.033-0.577-1.404-1.02
			c-0.373-0.442-0.651-0.975-0.837-1.597C224.22,93.299,224.127,92.61,224.127,91.853z M225.974,91.853
			c0,0.577,0.054,1.123,0.164,1.635c0.109,0.513,0.282,0.959,0.519,1.337c0.237,0.378,0.548,0.677,0.933,0.895
			c0.385,0.218,0.847,0.327,1.385,0.327c0.693,0,1.26-0.339,1.703-1.02c0.442-0.68,0.664-1.738,0.664-3.174
			c0-0.59-0.055-1.138-0.164-1.645c-0.109-0.506-0.279-0.949-0.51-1.327c-0.23-0.378-0.526-0.676-0.885-0.895
			c-0.359-0.218-0.789-0.327-1.289-0.327c-0.757,0-1.366,0.34-1.828,1.02C226.205,89.359,225.974,90.417,225.974,91.853z"/>
		<path d="M238.671,88.486c-0.142,0.077-0.318,0.234-0.529,0.471c-0.211,0.238-0.401,0.587-0.567,1.049v5.713
			c0.256,0.026,0.513,0.074,0.77,0.145c0.256,0.071,0.513,0.176,0.77,0.317v0.481h-4.541v-0.481
			c0.231-0.128,0.449-0.224,0.654-0.289c0.205-0.064,0.41-0.122,0.616-0.173v-7.561l-1.27-0.154v-0.5
			c0.411-0.18,0.834-0.324,1.27-0.433c0.436-0.109,0.853-0.195,1.25-0.26h0.481v2.04h0.077c0.116-0.256,0.279-0.513,0.491-0.77
			s0.455-0.487,0.731-0.693c0.276-0.205,0.577-0.362,0.904-0.471c0.327-0.109,0.664-0.144,1.01-0.106
			c0.089,0.167,0.169,0.35,0.24,0.548c0.07,0.199,0.138,0.407,0.202,0.625v0.5H238.671z"/>
		<path d="M251.907,96.663h-4.117v-0.481c0.128-0.077,0.285-0.157,0.471-0.24c0.186-0.083,0.407-0.157,0.664-0.222v-4.444
			c0-0.513-0.022-0.975-0.067-1.385c-0.045-0.41-0.128-0.753-0.25-1.029c-0.122-0.275-0.298-0.487-0.529-0.635
			c-0.231-0.147-0.533-0.221-0.904-0.221c-0.282,0-0.542,0.058-0.779,0.173c-0.237,0.115-0.449,0.269-0.635,0.461
			c-0.186,0.192-0.346,0.411-0.481,0.654s-0.241,0.5-0.317,0.77v5.656c0.205,0.064,0.4,0.132,0.586,0.202
			c0.186,0.071,0.369,0.157,0.548,0.26v0.481h-4.136v-0.481c0.18-0.089,0.378-0.173,0.597-0.25c0.218-0.077,0.442-0.147,0.673-0.212
			v-7.561l-1.27-0.154v-0.5c0.411-0.18,0.831-0.324,1.26-0.433c0.43-0.109,0.85-0.195,1.26-0.26h0.481v2.174h0.019
			c0.205-0.603,0.555-1.116,1.048-1.539c0.494-0.423,1.106-0.635,1.837-0.635c0.308,0,0.603,0.032,0.885,0.096
			c0.282,0.064,0.545,0.183,0.789,0.356c0.244,0.173,0.449,0.414,0.616,0.722c0.167,0.308,0.289,0.706,0.365,1.193
			c0.231-0.706,0.603-1.276,1.116-1.712c0.513-0.436,1.154-0.654,1.924-0.654c0.475,0,0.888,0.061,1.242,0.183
			c0.352,0.122,0.644,0.336,0.875,0.645c0.23,0.308,0.4,0.725,0.51,1.25c0.108,0.526,0.163,1.192,0.163,2v4.829
			c0.437,0.077,0.859,0.231,1.27,0.462v0.481h-4.136v-0.481c0.385-0.205,0.763-0.359,1.135-0.462v-4.79
			c0-0.462-0.022-0.872-0.067-1.231c-0.045-0.359-0.132-0.664-0.26-0.914c-0.128-0.25-0.308-0.442-0.539-0.577
			c-0.23-0.135-0.539-0.202-0.923-0.202c-0.616,0-1.093,0.212-1.433,0.635c-0.34,0.423-0.587,0.962-0.741,1.616v5.463
			c0.449,0.128,0.866,0.282,1.25,0.462V96.663z"/>
		<path d="M265.854,94.143c0,0.282,0.006,0.526,0.02,0.731c0.013,0.205,0.025,0.423,0.038,0.654l1.327,0.192v0.404
			c-0.32,0.167-0.677,0.314-1.067,0.442c-0.392,0.128-0.767,0.224-1.125,0.289h-0.481c-0.128-0.295-0.205-0.619-0.23-0.972
			c-0.026-0.353-0.046-0.741-0.058-1.164h-0.097c-0.052,0.256-0.15,0.516-0.298,0.779c-0.147,0.263-0.34,0.498-0.577,0.702
			c-0.237,0.206-0.517,0.373-0.837,0.5c-0.321,0.128-0.687,0.192-1.097,0.192c-0.782,0-1.421-0.237-1.914-0.712
			c-0.494-0.474-0.741-1.097-0.741-1.866c0-0.59,0.119-1.074,0.356-1.452s0.587-0.677,1.048-0.895
			c0.462-0.218,1.032-0.375,1.713-0.471c0.68-0.096,1.468-0.17,2.366-0.221c0.051-0.551,0.067-1.048,0.048-1.491
			c-0.02-0.443-0.09-0.821-0.212-1.135c-0.122-0.314-0.301-0.558-0.538-0.731c-0.237-0.173-0.549-0.26-0.934-0.26
			c-0.18,0-0.382,0.01-0.605,0.029c-0.225,0.019-0.446,0.074-0.664,0.164l-0.904,2.309h-0.5c-0.128-0.385-0.24-0.782-0.337-1.193
			c-0.096-0.41-0.157-0.814-0.183-1.212c0.487-0.295,1.029-0.526,1.626-0.692c0.596-0.167,1.26-0.25,1.991-0.25
			c0.653,0,1.176,0.093,1.567,0.279s0.689,0.426,0.895,0.721c0.205,0.295,0.34,0.622,0.404,0.981
			c0.064,0.359,0.096,0.718,0.096,1.077c0,0.77-0.016,1.51-0.048,2.222C265.87,92.805,265.854,93.488,265.854,94.143z
			 M262.142,95.701c0.32,0,0.603-0.064,0.847-0.192c0.243-0.128,0.448-0.282,0.615-0.462c0.167-0.179,0.301-0.362,0.404-0.548
			c0.103-0.186,0.173-0.343,0.211-0.472v-2.02c-0.743,0-1.353,0.039-1.827,0.116c-0.475,0.077-0.847,0.199-1.116,0.365
			c-0.269,0.167-0.455,0.375-0.558,0.625s-0.154,0.536-0.154,0.856c0,0.552,0.142,0.978,0.424,1.279
			C261.27,95.55,261.654,95.701,262.142,95.701z"/>
		<path d="M267.97,87.527c0.487-0.318,1.001-0.543,1.539-0.676v-1.635c0.167-0.128,0.362-0.253,0.587-0.375
			c0.225-0.122,0.446-0.228,0.664-0.317h0.48v2.52h2.886v1h-2.886v5.551c0,0.766,0.122,1.308,0.366,1.627
			c0.243,0.319,0.608,0.479,1.097,0.479c0.23,0,0.52-0.016,0.865-0.048c0.347-0.032,0.642-0.093,0.885-0.183l0.135,0.289
			c-0.103,0.116-0.247,0.238-0.433,0.366c-0.187,0.128-0.397,0.25-0.635,0.365c-0.237,0.116-0.497,0.212-0.779,0.289
			c-0.282,0.077-0.57,0.116-0.865,0.116c-0.77,0-1.356-0.217-1.761-0.651s-0.606-1.136-0.606-2.107v-6.091h-1.539V87.527z"/>
		<path d="M279.878,96.663h-4.271v-0.481c0.192-0.103,0.391-0.189,0.596-0.26c0.205-0.07,0.43-0.138,0.674-0.202v-7.561l-1.27-0.154
			v-0.5c0.371-0.154,0.775-0.289,1.212-0.404c0.436-0.115,0.872-0.211,1.308-0.289h0.481v8.907c0.256,0.064,0.487,0.132,0.692,0.202
			c0.205,0.071,0.397,0.157,0.577,0.26V96.663z M276.512,83.773c0-0.346,0.111-0.622,0.336-0.827s0.522-0.308,0.895-0.308
			s0.667,0.103,0.886,0.308c0.218,0.205,0.326,0.481,0.326,0.827s-0.108,0.619-0.326,0.818c-0.219,0.199-0.514,0.298-0.886,0.298
			s-0.67-0.099-0.895-0.298S276.512,84.119,276.512,83.773z"/>
		<path d="M288.824,95.316c-0.231,0.449-0.606,0.824-1.126,1.125c-0.519,0.301-1.125,0.452-1.817,0.452
			c-0.757,0-1.414-0.119-1.972-0.356c-0.559-0.237-1.023-0.577-1.396-1.02s-0.65-0.975-0.837-1.597
			c-0.186-0.622-0.278-1.312-0.278-2.068c0-1.628,0.397-2.876,1.192-3.742s1.879-1.299,3.251-1.299c0.629,0,1.189,0.055,1.684,0.164
			c0.494,0.109,0.914,0.253,1.26,0.433c-0.038,0.423-0.108,0.898-0.211,1.423c-0.104,0.526-0.231,0.962-0.385,1.308h-0.52
			l-0.809-2.289c-0.09-0.064-0.192-0.112-0.308-0.145c-0.115-0.032-0.308-0.048-0.577-0.048c-0.872,0-1.545,0.317-2.02,0.952
			s-0.712,1.709-0.712,3.223c0,0.487,0.067,0.962,0.202,1.423c0.135,0.462,0.34,0.875,0.615,1.241
			c0.275,0.365,0.622,0.657,1.039,0.875c0.417,0.218,0.9,0.327,1.452,0.327c0.449,0,0.84-0.064,1.174-0.192
			c0.333-0.128,0.615-0.282,0.847-0.462L288.824,95.316z"/>
		<path d="M295.249,94.469c0-0.359-0.112-0.664-0.336-0.914c-0.225-0.25-0.51-0.484-0.856-0.702
			c-0.347-0.218-0.715-0.43-1.106-0.635c-0.391-0.205-0.76-0.446-1.105-0.722c-0.347-0.275-0.632-0.593-0.856-0.952
			c-0.225-0.359-0.337-0.801-0.337-1.328c0-0.346,0.08-0.667,0.24-0.962c0.161-0.295,0.376-0.548,0.645-0.76
			c0.27-0.211,0.584-0.378,0.943-0.5c0.358-0.122,0.743-0.183,1.154-0.183c0.692,0,1.26,0.039,1.702,0.116
			c0.442,0.077,0.869,0.186,1.279,0.327c-0.051,0.41-0.112,0.824-0.183,1.241c-0.07,0.417-0.17,0.843-0.298,1.279h-0.481
			l-0.73-1.962c-0.154-0.064-0.327-0.106-0.52-0.125s-0.392-0.029-0.597-0.029c-0.23,0-0.433,0.042-0.606,0.125
			c-0.173,0.083-0.32,0.189-0.442,0.317c-0.122,0.128-0.215,0.276-0.278,0.442c-0.064,0.167-0.097,0.334-0.097,0.5
			c0,0.346,0.112,0.645,0.337,0.895s0.51,0.481,0.856,0.692c0.346,0.212,0.715,0.42,1.105,0.625c0.392,0.205,0.76,0.436,1.106,0.692
			c0.347,0.257,0.632,0.555,0.856,0.895c0.224,0.34,0.336,0.748,0.336,1.222c0,0.436-0.093,0.827-0.278,1.173
			c-0.187,0.347-0.442,0.642-0.77,0.885s-0.706,0.433-1.135,0.567c-0.431,0.135-0.889,0.202-1.376,0.202
			c-0.552,0-1.059-0.048-1.52-0.145c-0.462-0.096-0.943-0.234-1.443-0.414c0.025-0.461,0.083-0.907,0.173-1.337
			s0.205-0.843,0.347-1.241h0.481l0.846,2.097c0.142,0.103,0.312,0.161,0.51,0.173c0.199,0.013,0.382,0.019,0.549,0.019
			c0.564,0,1.02-0.154,1.366-0.461C295.076,95.277,295.249,94.906,295.249,94.469z"/>
		<path d="M310.467,94.143c0,0.282,0.006,0.526,0.02,0.731c0.013,0.205,0.025,0.423,0.038,0.654l1.327,0.192v0.404
			c-0.32,0.167-0.677,0.314-1.067,0.442c-0.392,0.128-0.767,0.224-1.125,0.289h-0.481c-0.128-0.295-0.205-0.619-0.23-0.972
			c-0.026-0.353-0.046-0.741-0.058-1.164h-0.097c-0.052,0.256-0.15,0.516-0.298,0.779c-0.147,0.263-0.34,0.498-0.577,0.702
			c-0.237,0.206-0.517,0.373-0.837,0.5c-0.321,0.128-0.687,0.192-1.097,0.192c-0.782,0-1.421-0.237-1.914-0.712
			c-0.494-0.474-0.741-1.097-0.741-1.866c0-0.59,0.119-1.074,0.356-1.452s0.587-0.677,1.048-0.895
			c0.462-0.218,1.032-0.375,1.713-0.471c0.68-0.096,1.468-0.17,2.366-0.221c0.051-0.551,0.067-1.048,0.048-1.491
			c-0.02-0.443-0.09-0.821-0.212-1.135c-0.122-0.314-0.301-0.558-0.538-0.731c-0.237-0.173-0.549-0.26-0.934-0.26
			c-0.18,0-0.382,0.01-0.605,0.029c-0.225,0.019-0.446,0.074-0.664,0.164l-0.904,2.309h-0.5c-0.128-0.385-0.24-0.782-0.337-1.193
			c-0.096-0.41-0.157-0.814-0.183-1.212c0.487-0.295,1.029-0.526,1.626-0.692c0.596-0.167,1.26-0.25,1.991-0.25
			c0.653,0,1.176,0.093,1.567,0.279s0.689,0.426,0.895,0.721c0.205,0.295,0.34,0.622,0.404,0.981
			c0.064,0.359,0.096,0.718,0.096,1.077c0,0.77-0.016,1.51-0.048,2.222C310.482,92.805,310.467,93.488,310.467,94.143z
			 M306.754,95.701c0.32,0,0.603-0.064,0.847-0.192c0.243-0.128,0.448-0.282,0.615-0.462c0.167-0.179,0.301-0.362,0.404-0.548
			c0.103-0.186,0.173-0.343,0.211-0.472v-2.02c-0.743,0-1.353,0.039-1.827,0.116c-0.475,0.077-0.847,0.199-1.116,0.365
			c-0.269,0.167-0.455,0.375-0.558,0.625s-0.154,0.536-0.154,0.856c0,0.552,0.142,0.978,0.424,1.279
			C305.882,95.55,306.267,95.701,306.754,95.701z"/>
		<path d="M312.582,87.527c0.487-0.318,1.001-0.543,1.539-0.676v-1.635c0.167-0.128,0.362-0.253,0.587-0.375
			c0.225-0.122,0.446-0.228,0.664-0.317h0.48v2.52h2.886v1h-2.886v5.551c0,0.766,0.122,1.308,0.366,1.627
			c0.243,0.319,0.608,0.479,1.097,0.479c0.23,0,0.52-0.016,0.865-0.048c0.347-0.032,0.642-0.093,0.885-0.183l0.135,0.289
			c-0.103,0.116-0.247,0.238-0.433,0.366c-0.187,0.128-0.397,0.25-0.635,0.365c-0.237,0.116-0.497,0.212-0.779,0.289
			c-0.282,0.077-0.57,0.116-0.865,0.116c-0.77,0-1.356-0.217-1.761-0.651s-0.606-1.136-0.606-2.107v-6.091h-1.539V87.527z"/>
		<path d="M324.298,83.196h4.887v0.556c-0.244,0.103-0.488,0.192-0.731,0.269s-0.487,0.147-0.73,0.211v7.844
			c0,0.678,0.073,1.243,0.221,1.697s0.362,0.818,0.645,1.093s0.632,0.473,1.049,0.595c0.416,0.121,0.888,0.182,1.414,0.182
			c1.013,0,1.802-0.278,2.366-0.834c0.563-0.556,0.847-1.473,0.847-2.752v-7.652c-0.296-0.102-0.571-0.208-0.828-0.316
			c-0.256-0.109-0.487-0.221-0.692-0.336v-0.556h4.098v0.558c-0.243,0.141-0.49,0.269-0.74,0.385
			c-0.25,0.115-0.504,0.205-0.76,0.269v7.715c0,0.821-0.109,1.526-0.327,2.116c-0.219,0.59-0.522,1.077-0.914,1.462
			s-0.865,0.67-1.424,0.856c-0.558,0.186-1.177,0.279-1.856,0.279c-1.604,0-2.828-0.362-3.674-1.087
			c-0.847-0.725-1.271-1.837-1.271-3.338v-8.176c-0.525-0.077-1.052-0.237-1.577-0.481V83.196z"/>
		<path d="M342.882,96.663h-4.925v-0.558c0.5-0.23,1.013-0.385,1.539-0.461V84.235c-0.257-0.051-0.514-0.119-0.77-0.202
			c-0.257-0.083-0.514-0.176-0.77-0.279v-0.558h4.925v0.558c-0.231,0.103-0.481,0.196-0.751,0.279
			c-0.269,0.083-0.532,0.151-0.788,0.202v11.408c0.27,0.051,0.538,0.115,0.808,0.192c0.27,0.077,0.513,0.167,0.731,0.269V96.663z"/>
		<path d="M343.998,83.196h4.887v0.556c-0.244,0.103-0.488,0.192-0.731,0.269s-0.487,0.147-0.73,0.211v7.844
			c0,0.678,0.073,1.243,0.221,1.697s0.362,0.818,0.645,1.093s0.632,0.473,1.049,0.595c0.416,0.121,0.888,0.182,1.414,0.182
			c1.013,0,1.802-0.278,2.366-0.834c0.563-0.556,0.847-1.473,0.847-2.752v-7.652c-0.296-0.102-0.571-0.208-0.828-0.316
			c-0.256-0.109-0.487-0.221-0.692-0.336v-0.556h4.098v0.558c-0.243,0.141-0.49,0.269-0.74,0.385
			c-0.25,0.115-0.504,0.205-0.76,0.269v7.715c0,0.821-0.109,1.526-0.327,2.116c-0.219,0.59-0.522,1.077-0.914,1.462
			s-0.865,0.67-1.424,0.856c-0.558,0.186-1.177,0.279-1.856,0.279c-1.604,0-2.828-0.362-3.674-1.087
			c-0.847-0.725-1.271-1.837-1.271-3.338v-8.176c-0.525-0.077-1.052-0.237-1.577-0.481V83.196z"/>
		<path d="M367.257,93.161h0.5c0.064,0.359,0.122,0.812,0.173,1.356c0.052,0.545,0.064,1.074,0.039,1.587
			c-0.192,0.154-0.424,0.279-0.692,0.375c-0.27,0.096-0.556,0.176-0.856,0.24c-0.302,0.064-0.609,0.109-0.924,0.135
			c-0.314,0.025-0.612,0.039-0.895,0.039c-1.077,0-2.039-0.138-2.886-0.414c-0.847-0.276-1.562-0.696-2.145-1.26
			c-0.584-0.564-1.033-1.286-1.347-2.164c-0.314-0.878-0.472-1.921-0.472-3.126c0-1.257,0.173-2.325,0.52-3.203
			s0.814-1.597,1.404-2.155c0.59-0.558,1.276-0.965,2.059-1.222c0.782-0.256,1.604-0.385,2.463-0.385
			c0.846,0,1.558,0.055,2.135,0.164c0.577,0.109,1.084,0.273,1.521,0.491c0,0.205-0.007,0.446-0.02,0.721
			c-0.013,0.276-0.032,0.568-0.058,0.875c-0.026,0.308-0.058,0.609-0.097,0.904c-0.038,0.295-0.077,0.564-0.115,0.808h-0.5
			l-1.001-2.771c-0.141-0.077-0.374-0.128-0.699-0.154c-0.326-0.025-0.649-0.039-0.969-0.039c-0.64,0-1.244,0.119-1.813,0.356
			c-0.568,0.237-1.067,0.603-1.496,1.097c-0.428,0.494-0.771,1.116-1.025,1.866c-0.256,0.75-0.384,1.632-0.384,2.645
			c0,0.911,0.115,1.735,0.345,2.472c0.23,0.738,0.563,1.366,0.998,1.885s0.966,0.917,1.593,1.193
			c0.626,0.276,1.336,0.414,2.129,0.414c0.422,0,0.773-0.032,1.055-0.096c0.281-0.064,0.467-0.147,0.557-0.25L367.257,93.161z"/>
	</g>
</g>
<path class="st0" d="M44,21.211L22,8.703L0,21.155v25.019l16.496,9.393v-25.21c0-0.351,0.284-0.635,0.635-0.635
	c0.351,0,0.632,0.284,0.632,0.635V56.29l1.591,0.906V30.509c0-0.461,0.384-0.839,0.85-0.839c0.464,0,0.839,0.377,0.839,0.839v27.648
	L22,58.702l0.811-0.453V27.864h-6.452c-0.346,0-0.625-0.288-0.625-0.639c0-0.342,0.279-0.621,0.625-0.621h6.452v-1.238h-6.851
	c-0.422,0-0.763-0.346-0.763-0.763c0-0.431,0.342-0.763,0.763-0.763h6.851V22.45c-2.092,0-9.851,0-9.862,0
	c-1.338-0.009-2.403,0.328-3.091,0.999c-0.528,0.515-0.814,1.198-0.823,1.992c-0.011,0.914,0.371,1.469,0.695,1.771
	c0.404,0.377,0.936,0.581,1.447,0.541c0.79-0.053,1.649-0.612,1.762-1.549c0.04-0.333-0.025-0.617-0.182-0.817
	c-0.129-0.155-0.326-0.257-0.541-0.275c-0.355-0.022-0.523,0.164-0.563,0.226c-0.058,0.071-0.08,0.151-0.058,0.204
	c0.124,0.324-0.038,0.692-0.359,0.816c-0.324,0.129-0.688-0.035-0.814-0.355c-0.184-0.461-0.104-0.994,0.211-1.416
	c0.375-0.515,1.003-0.785,1.684-0.737c0.552,0.049,1.069,0.311,1.418,0.737c0.266,0.324,0.563,0.896,0.459,1.771
	c-0.195,1.611-1.615,2.556-2.915,2.654c-0.872,0.058-1.751-0.257-2.412-0.879c-0.717-0.679-1.105-1.642-1.087-2.716
	c0.009-1.132,0.426-2.13,1.198-2.876c0.932-0.905,2.316-1.38,3.985-1.353h21.75v3.399c-5.163,1.016-7.466,1.913-7.462,15.003V52.82
	c0.003,1.04,0.027,2.003,0.065,2.911L44,46.4V21.211z"/>
<path class="st1" d="M17.131,29.723c-0.351,0-0.635,0.284-0.635,0.635v25.21l1.267,0.721V30.358
	C17.763,30.007,17.481,29.723,17.131,29.723z"/>
<path class="st1" d="M20.204,29.67c-0.466,0-0.85,0.377-0.85,0.839v26.687l1.689,0.961V30.509
	C21.042,30.047,20.667,29.67,20.204,29.67z"/>
</svg>