<!-- Generator: Adobe Illustrator 19.2.1, SVG Export Plug-In  -->
<svg version="1.1"
	 xmlns="http://www.w3.org/2000/svg" xmlns:xlink="http://www.w3.org/1999/xlink" xmlns:a="http://ns.adobe.com/AdobeSVGViewerExtensions/3.0/"
	 x="0px" y="0px" width="250.977px" height="153.843px" viewBox="0 0 250.977 153.843"
	 style="enable-background:new 0 0 250.977 153.843;" xml:space="preserve">
<style type="text/css">
	.st0{fill:#FF5F9D;}
	.st1{fill:#C7E8BF;}
	.st2{fill:#00A3DB;}
	.st3{fill:#231F20;}
</style>
<defs>
</defs>
<g>
	<g>
		<g>
			<path class="st0" d="M139.515,81.15c-41.404,0-111.714,1.86-111.714,4.16c0,2.297,70.311,4.154,111.714,4.154"/>
			<g>
				<g>
					<path class="st1" d="M174.643,100.214c-3.358,0.138-14.445-2.424-1.807-17.873c9.529-11.643,17.512-32.358,9.276-45.822
						c-7.485-12.232-32.719-16.311-58.739-4.656c-25.83,11.564-42.758,31.297-42.758,66.021c0,41.57,60.419,77.857,98.144,40.131
						C202.494,114.279,189.004,99.615,174.643,100.214z M143.173,95.202c-5.352,0-9.689-4.364-9.689-9.738
						c0-5.375,4.337-9.736,9.689-9.736c5.351,0,9.693,4.36,9.693,9.736C152.866,90.839,148.523,95.202,143.173,95.202z"/>
				</g>
			</g>
			<g>
				<g>
					<path class="st2" d="M112.106,61.445c0-2.128,0.564-4.121,1.54-5.849c-6.423-2.471-11.126-9.9-12.044-11.008
						c-2.159-2.604-3.651-1.933-4.457-1.057C91.835,49.264,86.454,55.104,80.299,59.8c-1.029,0.783-2.131,1.432-3.26,2.053
						c-0.129,0.071-0.238,0.126-0.338,0.174c-0.013-0.172,0.002-0.373-0.003-0.696c-0.05-3.395,3.276-7.228,5.51-9.739
						c6.586-7.401,10.696-10.227,18.924-15.562c4.311-2.796,5.69,0.162,5.492-2.942c-0.289-4.56-3.901-8.02-8.951-5.352
						c-10.9,5.758-16.997,11.353-26.438,19.202c-1.857,1.546-3.744,3.04-5.74,4.403c-0.16,0.106-0.331,0.192-0.494,0.294
						c-1.333-3.984-0.951-8.64-1.542-12.768c-0.462-3.201-4.775-4.469-7.248-2.964c-4.321,2.63-7.857,6.034-11.235,9.588
						c1.754-5.181,2.81-10.435,1.632-15.803c-0.689-3.147-4.604-4.526-7.248-2.963c-4.552,2.693-8.788,6.113-12.787,9.899
						c0.077-1.738-0.025-3.51-0.358-5.324c-0.824-4.5-5.917-3.583-9.016-1.184c-3.399,2.633-7.053,6.903-8.592,8.744
						c-0.751,0.898-3.957,5.765-6.734,3.579c-5.012-3.945,1.121,8.293,5.734,7.204c4.312-0.876,5.818-4.482,8.329-7.952
						c-2.021,6.24-6.759,12.468-9.405,17.504c-2.515,4.776,3.993,10.492,7.745,6.009c6.525-7.789,13.55-16.795,21.61-23.75
						c-0.725,2.1-1.584,4.127-2.234,5.898c-1.775,4.827-3.927,9.566-5.038,14.607c-0.866,3.897,3.446,8.266,7.245,5.598
						c7.319-5.141,12.515-12.502,19.092-18.382c1.176,7.466,3.651,15.195,11.878,12.514c0.077,0.814,0.174,1.66,0.307,2.565
						c0.916,6.219,7.144,9.046,12.72,7.108c4.369-1.515,8.044-4.921,11.424-7.961c3.738-3.363,5.18-5.464,7.051-7.96
						c1.729,3.27,5.113,6.673,9.842,7.777c1.535,0.358,2.95,0.69,4.266,0.98C112.229,63.314,112.106,62.395,112.106,61.445z"/>
				</g>
			</g>
			<g>
				<path class="st0" d="M218.94,25.398c9.423-0.217,18.836-1.034,28.236-1.667c5.05-0.342,5.085-8.276,0-7.933
					c-9.4,0.635-18.813,1.451-28.236,1.667C213.858,17.583,213.848,25.515,218.94,25.398L218.94,25.398z"/>
				<path class="st0" d="M121.056,70.312c6.695-9.46,22.987-27.994,34.104-32.327c-2.023-2.031-4.047-4.066-6.07-6.097
					c-2.271,11.894-7.535,22.848-10.43,34.56c-1.179,4.754,4.695,8.423,8.245,4.825c8.083-8.199,16.439-16.096,25.488-23.214
					c-2.805-1.168-5.615-2.339-8.419-3.505c-0.049,6.157-0.156,15.63,6.039,19.256c5.851,3.422,12.074,0.977,17.709-1.662
					c13.947-6.542,24.142-18.992,24.616-34.792c0.061-1.995-1.533-4.473-3.621-4.781c-11.253-1.664-19.966,4.756-23.967,15.173
					c-3.352,8.719-3.995,20.881,3.054,28.018c9.52,9.64,23.45-1.75,30.34-8.719c13.848-14.006,23.56-32.846,30.633-51.073
					c-3.173-0.878-6.34-1.757-9.517-2.636c-8.17,21.347-12.109,41.049-17.475,63.392c-1.227,5.111,2.421,2.952,1.998,6.159
					c0,0-0.765,1.173-3.962,2.114l2.669,2.42c6.911-13.898,9.927-21.878,11.688-28.726c5.505-21.363,6.756-22.243,14.599-42.724
					c2.291-5.985-7.23-8.517-9.517-2.636c-5.136,13.248-12.021,25.887-20.307,37.408c-4.085,5.683-8.935,11.154-14.553,15.345
					c-2.033,1.516-6.207,4.405-8.959,3.087c-4.655-2.234-3.314-11.279-2.39-15.107c1.474-6.089,5.921-12.988,13.038-11.933
					c-1.209-1.596-2.409-3.188-3.618-4.782c-0.321,10.676-6.565,18.412-15.311,23.84c-3.024,1.88-6.265,3.422-9.697,4.36
					c-4.654,1.271-3.645-8.448-3.628-11.002c0.039-4.731-5.227-6.021-8.416-3.507c-9.052,7.119-17.409,15.016-25.492,23.213
					c2.746,1.611,5.498,3.216,8.243,4.824c2.897-11.711,8.155-22.667,10.433-34.56c0.637-3.318-2.49-8.093-6.07-6.099
					c-9.562,5.324-28.751,25.22-37.144,37.071C111.693,70.72,121.056,70.312,121.056,70.312z"/>
			</g>
			<path class="st3" d="M177.988,84.658"/>
			<path class="st0" d="M189.582,85.213c1.34-5.688,2.996-7.497,4.328-8.539c1.898-1.48,7.826-1.956,10.206-1.265
				c5.958,1.721,14.824,1.045,20.414-3.004c-0.248,1.597-4.997,15.806-20.197,18.649c-4.892,0.914-5.737-2.172-14.519-2.934
				c0.24-0.777,2.996-4.466,15.043-4.466C194.332,80.031,189.582,85.213,189.582,85.213z"/>
			<ellipse class="st0" cx="183.401" cy="84.988" rx="3.892" ry="3.91"/>
			<path class="st0" d="M106.53,87.956c6.643-7.976,13.279-15.948,19.926-23.925c3.184-3.822-2.271-9.365-5.483-5.507
				c-6.643,7.974-13.282,15.949-19.926,23.927C97.865,86.272,103.316,91.816,106.53,87.956L106.53,87.956z"/>
			<path class="st2" d="M113.062,111.438c-1.848-9.09-3.692-18.179-5.536-27.269c-1-4.918-8.472-2.833-7.478,2.07
				c1.847,9.087,3.691,18.181,5.538,27.267C106.588,118.426,114.056,116.339,113.062,111.438L113.062,111.438z"/>
			<path class="st2" d="M107.368,115.837c7.566,5.747,15.131,11.498,22.697,17.246c3.991,3.03,7.847-3.736,3.916-6.724
				c-7.569-5.75-15.136-11.501-22.701-17.253C107.288,106.077,103.435,112.847,107.368,115.837L107.368,115.837z"/>
			<ellipse class="st0" cx="123.716" cy="61.277" rx="9.689" ry="9.738"/>
			<path class="st0" d="M113.472,85.202c0,5.378-4.337,9.737-9.683,9.737c-5.358,0-9.69-4.358-9.69-9.737
				c0-5.378,4.332-9.732,9.69-9.732C109.135,75.47,113.472,79.824,113.472,85.202z"/>
			<path class="st2" d="M119.011,112.47c0,5.374-4.34,9.736-9.688,9.736c-5.355,0-9.689-4.362-9.689-9.736
				c0-5.373,4.334-9.737,9.689-9.737C114.67,102.733,119.011,107.097,119.011,112.47z"/>
			<path class="st2" d="M141.712,129.723c0,5.371-4.349,9.73-9.689,9.73c-5.357,0-9.693-4.358-9.693-9.73
				c0-5.38,4.336-9.742,9.693-9.742C137.363,119.981,141.712,124.343,141.712,129.723z"/>
			<path class="st2" d="M171.606,122.483c0,5.378-4.342,9.739-9.685,9.739c-5.355,0-9.689-4.361-9.689-9.739
				c0-5.377,4.334-9.736,9.689-9.736C167.264,112.746,171.606,117.106,171.606,122.483z"/>
			<g>
				<g>
					<path class="st2" d="M131.891,89.01c-8.436,6.902-16.873,13.804-25.306,20.706c-3.878,3.175,1.639,8.648,5.479,5.506
						c8.137-6.655,16.275-13.314,24.413-19.973C134.326,93.758,132.688,91.572,131.891,89.01z"/>
				</g>
			</g>
			<g>
				<g>
					<path class="st0" d="M139.129,74.24c-4.211-5.449-8.422-10.899-12.631-16.348c-3.068-3.963-8.508,1.591-5.482,5.507
						c4.038,5.227,8.079,10.457,12.119,15.685C134.532,76.867,136.634,75.149,139.129,74.24z"/>
				</g>
			</g>
			<path class="st0" d="M138.201,89.464c41.396,0,39.53-1.857,39.53-4.154c0-2.3,1.865-4.16-39.53-4.16"/>
		</g>
	</g>
</g>
</svg>