<!-- Generator: Adobe Illustrator 19.2.1, SVG Export Plug-In  -->
<svg version="1.1"
	 xmlns="http://www.w3.org/2000/svg" xmlns:xlink="http://www.w3.org/1999/xlink" xmlns:a="http://ns.adobe.com/AdobeSVGViewerExtensions/3.0/"
	 x="0px" y="0px" width="26.471px" height="34.366px" viewBox="0 0 26.471 34.366"
	 style="enable-background:new 0 0 26.471 34.366;" xml:space="preserve">
<style type="text/css">
	.st0{stroke:#000000;stroke-width:2.471;}
	.st1{fill:none;stroke:#FFFFFF;stroke-width:0.7626;}
	.st2{fill:#FFFFFF;}
</style>
<defs>
</defs>
<rect x="1.235" y="1.235" class="st0" width="24" height="31.895"/>
<g>
	<rect x="1.934" y="2.044" width="22.604" height="30.4"/>
	<rect x="1.934" y="2.044" class="st1" width="22.604" height="30.4"/>
</g>
<g>
	<path class="st2" d="M19.037,28.728v-1.672c-2.341-0.355-3.753-1.094-3.774-7.217v-5.822c-0.002-5.762,1.012-6.156,3.284-6.603
		V5.917H8.975C8.24,5.905,7.631,6.114,7.221,6.513C6.881,6.841,6.697,7.28,6.694,7.779C6.686,8.251,6.857,8.675,7.172,8.974
		C7.463,9.247,7.85,9.386,8.233,9.361c0.572-0.043,1.197-0.459,1.283-1.168c0.046-0.385-0.085-0.637-0.202-0.779
		C9.161,7.226,8.934,7.11,8.691,7.089c-0.3-0.021-0.576,0.098-0.741,0.324c-0.139,0.186-0.174,0.42-0.093,0.623
		c0.056,0.141,0.216,0.213,0.358,0.156c0.142-0.055,0.213-0.217,0.158-0.359c-0.01-0.023,0-0.059,0.025-0.09
		c0.018-0.027,0.092-0.109,0.248-0.1c0.095,0.008,0.182,0.053,0.238,0.121c0.069,0.088,0.098,0.213,0.08,0.359
		C8.915,8.536,8.537,8.782,8.19,8.806C7.965,8.823,7.731,8.733,7.553,8.568C7.41,8.435,7.242,8.191,7.247,7.788
		c0.004-0.35,0.13-0.65,0.362-0.877c0.303-0.295,0.772-0.443,1.36-0.44c0.005,0,3.42,0,4.341,0v0.611h-3.016
		c-0.186,0-0.336,0.146-0.336,0.336c0,0.184,0.15,0.336,0.336,0.336h3.016V8.3h-2.84l0,0c-0.152,0-0.275,0.123-0.275,0.273
		c0,0.154,0.123,0.281,0.275,0.281h2.84V25.98H8.492c-0.169,0-0.307,0.135-0.307,0.305c0,0.168,0.138,0.309,0.307,0.309h4.818v0.744
		H7.563c-0.381,0-0.693,0.309-0.693,0.693l-0.002,0.697H19.037z"/>
	<path class="st2" d="M11.089,24.919V9.952c0-0.154-0.124-0.279-0.278-0.279c-0.154,0-0.279,0.125-0.279,0.279v14.967
		c0,0.15,0.125,0.273,0.279,0.273C10.965,25.192,11.089,25.069,11.089,24.919z"/>
	<path class="st2" d="M12.532,24.874V10.019c0-0.203-0.165-0.369-0.369-0.369c-0.205,0-0.374,0.166-0.374,0.369v14.856
		c0,0.205,0.169,0.369,0.374,0.369C12.367,25.243,12.532,25.079,12.532,24.874z"/>
</g>
</svg>