<!-- Generator: Adobe Illustrator 19.2.1, SVG Export Plug-In  -->
<svg version="1.1"
	 xmlns="http://www.w3.org/2000/svg" xmlns:xlink="http://www.w3.org/1999/xlink" xmlns:a="http://ns.adobe.com/AdobeSVGViewerExtensions/3.0/"
	 x="0px" y="0px" width="174.972px" height="63.966px" viewBox="0 0 174.972 63.966"
	 style="enable-background:new 0 0 174.972 63.966;" xml:space="preserve">
<style type="text/css">
	.st0{fill:#2C2C2C;}
	.st1{fill:none;stroke:#2C2C2C;stroke-width:9.0101;stroke-linecap:round;stroke-linejoin:round;stroke-miterlimit:10;}
	.st2{font-family:'ArialRoundedMTBold';}
	.st3{font-size:15.9404px;}
	.st4{letter-spacing:-1;}
</style>
<defs>
</defs>
<g>
	<path class="st0" d="M11.319,57.179c0,0.69-0.178,1.311-0.533,1.86c-0.355,0.55-0.875,0.98-1.561,1.292s-1.497,0.467-2.436,0.467
		c-1.126,0-2.055-0.213-2.787-0.639c-0.519-0.306-0.94-0.714-1.265-1.226s-0.486-1.008-0.486-1.491c0-0.28,0.097-0.52,0.292-0.72
		c0.195-0.2,0.442-0.3,0.744-0.3c0.244,0,0.45,0.078,0.619,0.233c0.168,0.156,0.312,0.387,0.432,0.693
		c0.145,0.363,0.302,0.667,0.471,0.911c0.168,0.244,0.406,0.445,0.712,0.603c0.306,0.159,0.708,0.238,1.207,0.238
		c0.685,0,1.242-0.16,1.669-0.479c0.428-0.319,0.643-0.717,0.643-1.195c0-0.378-0.116-0.686-0.347-0.922
		c-0.231-0.236-0.529-0.416-0.895-0.541c-0.366-0.125-0.855-0.257-1.467-0.397c-0.82-0.192-1.506-0.417-2.059-0.673
		s-0.991-0.607-1.315-1.051c-0.324-0.444-0.486-0.995-0.486-1.654c0-0.627,0.171-1.186,0.514-1.673s0.838-0.862,1.487-1.125
		c0.648-0.262,1.411-0.393,2.288-0.393c0.701,0,1.306,0.087,1.817,0.261s0.935,0.405,1.272,0.693c0.337,0.288,0.584,0.59,0.74,0.907
		c0.155,0.316,0.233,0.625,0.233,0.926c0,0.275-0.097,0.522-0.292,0.743c-0.194,0.221-0.437,0.331-0.728,0.331
		c-0.265,0-0.466-0.066-0.604-0.198c-0.137-0.132-0.287-0.349-0.447-0.65c-0.208-0.431-0.457-0.767-0.748-1.008
		c-0.291-0.242-0.757-0.362-1.401-0.362c-0.597,0-1.078,0.131-1.444,0.393C4.793,51.297,4.61,51.612,4.61,51.98
		c0,0.229,0.062,0.426,0.187,0.592S5.093,52.88,5.31,53c0.218,0.12,0.438,0.213,0.662,0.28s0.591,0.166,1.105,0.296
		c0.643,0.15,1.226,0.316,1.747,0.498s0.965,0.402,1.331,0.662s0.651,0.587,0.856,0.984S11.319,56.604,11.319,57.179z"/>
	<path class="st0" d="M18.301,48.999c1.183,0,2.199,0.24,3.047,0.72c0.848,0.48,1.49,1.163,1.926,2.047s0.654,1.924,0.654,3.117
		c0,0.882-0.12,1.684-0.358,2.405c-0.239,0.722-0.597,1.347-1.074,1.876c-0.478,0.529-1.064,0.934-1.759,1.214
		s-1.492,0.42-2.389,0.42c-0.893,0-1.692-0.144-2.397-0.432c-0.706-0.288-1.295-0.694-1.767-1.218
		c-0.473-0.524-0.829-1.154-1.07-1.891s-0.362-1.534-0.362-2.39c0-0.877,0.125-1.681,0.377-2.413
		c0.251-0.731,0.616-1.354,1.093-1.868s1.059-0.907,1.744-1.179C16.651,49.135,17.429,48.999,18.301,48.999z M21.586,54.868
		c0-0.835-0.135-1.559-0.405-2.171c-0.27-0.612-0.655-1.076-1.156-1.39c-0.501-0.314-1.076-0.471-1.724-0.471
		c-0.462,0-0.889,0.087-1.28,0.261c-0.392,0.174-0.729,0.427-1.012,0.759c-0.283,0.332-0.506,0.756-0.669,1.272
		c-0.164,0.517-0.245,1.096-0.245,1.74c0,0.648,0.082,1.235,0.245,1.759c0.163,0.524,0.394,0.959,0.692,1.304
		c0.298,0.345,0.641,0.604,1.028,0.775c0.386,0.171,0.811,0.257,1.272,0.257c0.591,0,1.135-0.148,1.63-0.444s0.89-0.752,1.183-1.37
		C21.439,56.531,21.586,55.771,21.586,54.868z"/>
	<path class="st0" d="M32.723,50.976H28.17v2.918h3.806c0.353,0,0.616,0.08,0.79,0.238s0.261,0.37,0.261,0.634
		s-0.088,0.475-0.265,0.63s-0.438,0.233-0.786,0.233H28.17v3.759c0,0.478-0.108,0.832-0.323,1.062
		c-0.216,0.231-0.492,0.347-0.829,0.347c-0.342,0-0.622-0.117-0.837-0.351s-0.323-0.586-0.323-1.059V50.61
		c0-0.332,0.049-0.604,0.148-0.813c0.098-0.21,0.253-0.363,0.463-0.459c0.21-0.096,0.479-0.144,0.806-0.144h5.448
		c0.369,0,0.642,0.082,0.821,0.245c0.179,0.164,0.269,0.378,0.269,0.643c0,0.27-0.089,0.486-0.269,0.65
		C33.365,50.894,33.092,50.976,32.723,50.976z"/>
	<path class="st0" d="M42.943,51.101h-2.522v8.289c0,0.478-0.106,0.832-0.319,1.062c-0.212,0.231-0.488,0.347-0.825,0.347
		c-0.343,0-0.622-0.117-0.837-0.351s-0.323-0.586-0.323-1.059v-8.289h-2.522c-0.395,0-0.688-0.087-0.879-0.261
		c-0.192-0.174-0.288-0.403-0.288-0.689c0-0.296,0.1-0.529,0.3-0.701c0.2-0.171,0.489-0.257,0.868-0.257h7.348
		c0.399,0,0.696,0.088,0.891,0.265c0.194,0.177,0.292,0.408,0.292,0.693c0,0.286-0.099,0.515-0.296,0.689
		S43.337,51.101,42.943,51.101z"/>
	<path class="st0" d="M53.575,58.806l-1.845-6.842l-1.868,6.842c-0.146,0.519-0.261,0.891-0.346,1.117
		c-0.086,0.226-0.235,0.428-0.448,0.607c-0.213,0.179-0.496,0.269-0.848,0.269c-0.286,0-0.521-0.054-0.705-0.16
		c-0.184-0.106-0.333-0.257-0.448-0.452c-0.114-0.194-0.208-0.425-0.28-0.693c-0.073-0.267-0.138-0.515-0.195-0.743l-1.899-7.682
		c-0.114-0.446-0.171-0.786-0.171-1.02c0-0.296,0.104-0.545,0.312-0.747c0.207-0.203,0.464-0.304,0.771-0.304
		c0.42,0,0.703,0.135,0.848,0.405c0.146,0.27,0.272,0.662,0.381,1.175l1.495,6.663l1.673-6.235c0.125-0.477,0.236-0.84,0.334-1.089
		s0.26-0.464,0.483-0.646c0.223-0.182,0.526-0.272,0.911-0.272c0.389,0,0.691,0.095,0.907,0.284s0.364,0.396,0.447,0.619
		s0.195,0.591,0.335,1.105l1.689,6.235l1.494-6.663c0.073-0.348,0.142-0.62,0.207-0.817s0.176-0.374,0.334-0.529
		s0.388-0.233,0.689-0.233s0.557,0.1,0.767,0.3c0.21,0.2,0.315,0.45,0.315,0.751c0,0.213-0.057,0.553-0.171,1.02l-1.899,7.682
		c-0.13,0.519-0.238,0.899-0.323,1.14c-0.085,0.242-0.231,0.453-0.436,0.635c-0.205,0.181-0.494,0.272-0.868,0.272
		c-0.353,0-0.636-0.088-0.848-0.265c-0.213-0.177-0.361-0.375-0.444-0.596C53.843,59.718,53.726,59.34,53.575,58.806z"/>
	<path class="st0" d="M67.749,59.312l-0.545-1.432h-4.639l-0.545,1.463c-0.212,0.571-0.394,0.956-0.544,1.156
		c-0.151,0.2-0.397,0.3-0.74,0.3c-0.291,0-0.547-0.106-0.771-0.319s-0.334-0.454-0.334-0.724c0-0.155,0.026-0.316,0.078-0.482
		s0.138-0.397,0.257-0.693l2.919-7.41c0.083-0.212,0.183-0.468,0.3-0.767c0.117-0.298,0.241-0.546,0.374-0.743
		s0.306-0.357,0.521-0.479c0.215-0.122,0.481-0.183,0.798-0.183c0.321,0,0.59,0.061,0.805,0.183
		c0.215,0.122,0.389,0.279,0.521,0.471s0.244,0.398,0.335,0.619c0.091,0.221,0.206,0.515,0.346,0.883l2.981,7.363
		c0.234,0.561,0.351,0.968,0.351,1.222c0,0.265-0.11,0.507-0.331,0.728s-0.486,0.331-0.798,0.331c-0.182,0-0.337-0.033-0.467-0.098
		c-0.13-0.065-0.239-0.153-0.327-0.265c-0.088-0.111-0.183-0.283-0.284-0.514C67.908,59.692,67.821,59.488,67.749,59.312z
		 M63.172,56.144h3.409l-1.72-4.709L63.172,56.144z"/>
	<path class="st0" d="M75.019,55.724h-0.81v3.666c0,0.483-0.106,0.838-0.319,1.066c-0.213,0.229-0.49,0.343-0.833,0.343
		c-0.369,0-0.654-0.12-0.856-0.358c-0.202-0.238-0.303-0.589-0.303-1.051V50.61c0-0.499,0.111-0.859,0.334-1.082
		s0.584-0.335,1.082-0.335h3.759c0.519,0,0.962,0.022,1.331,0.066c0.368,0.044,0.7,0.134,0.996,0.269
		c0.358,0.15,0.674,0.366,0.95,0.646c0.275,0.28,0.484,0.606,0.626,0.977c0.143,0.371,0.214,0.764,0.214,1.179
		c0,0.851-0.24,1.531-0.72,2.04c-0.48,0.508-1.208,0.869-2.183,1.082c0.41,0.218,0.802,0.54,1.175,0.965
		c0.374,0.426,0.707,0.878,1,1.358c0.293,0.48,0.521,0.913,0.685,1.3c0.163,0.387,0.245,0.652,0.245,0.798
		c0,0.15-0.048,0.299-0.144,0.447c-0.096,0.148-0.227,0.265-0.393,0.35c-0.166,0.086-0.358,0.129-0.576,0.129
		c-0.259,0-0.477-0.062-0.654-0.183c-0.176-0.122-0.328-0.276-0.455-0.463c-0.127-0.187-0.3-0.461-0.518-0.825l-0.926-1.541
		c-0.332-0.566-0.629-0.997-0.891-1.292c-0.262-0.295-0.528-0.498-0.798-0.607C75.768,55.778,75.428,55.724,75.019,55.724z
		 M76.342,50.929h-2.133v3.137h2.07c0.555,0,1.022-0.048,1.401-0.144c0.379-0.096,0.668-0.259,0.868-0.49
		c0.2-0.231,0.299-0.549,0.299-0.954c0-0.316-0.081-0.595-0.241-0.836c-0.161-0.242-0.384-0.422-0.669-0.541
		C77.668,50.986,77.135,50.929,76.342,50.929z"/>
	<path class="st0" d="M90.896,50.976h-5.207v2.802h4.795c0.353,0,0.616,0.079,0.79,0.237c0.174,0.159,0.261,0.367,0.261,0.627
		c0,0.259-0.086,0.471-0.257,0.634s-0.436,0.245-0.794,0.245h-4.795v3.246h5.387c0.363,0,0.637,0.084,0.821,0.253
		c0.184,0.169,0.276,0.393,0.276,0.673c0,0.27-0.093,0.489-0.276,0.658c-0.185,0.168-0.458,0.253-0.821,0.253h-6.281
		c-0.504,0-0.865-0.111-1.086-0.334s-0.331-0.584-0.331-1.082V50.61c0-0.332,0.05-0.604,0.148-0.813
		c0.099-0.21,0.253-0.363,0.463-0.459c0.21-0.096,0.479-0.144,0.806-0.144h6.102c0.369,0,0.643,0.082,0.821,0.245
		c0.18,0.164,0.269,0.378,0.269,0.643c0,0.27-0.089,0.486-0.269,0.65C91.539,50.894,91.265,50.976,90.896,50.976z"/>
	<path class="st0" d="M102.424,56.16h-2.117v3.23c0,0.462-0.108,0.812-0.326,1.051c-0.219,0.239-0.493,0.358-0.825,0.358
		c-0.348,0-0.628-0.118-0.841-0.354c-0.213-0.236-0.319-0.583-0.319-1.039V50.61c0-0.509,0.117-0.872,0.351-1.09
		s0.604-0.327,1.113-0.327h2.965c0.877,0,1.552,0.068,2.024,0.203c0.467,0.13,0.87,0.345,1.21,0.646s0.598,0.669,0.774,1.105
		c0.177,0.436,0.265,0.926,0.265,1.471c0,1.163-0.358,2.043-1.074,2.643S103.841,56.16,102.424,56.16z M101.863,50.929h-1.557v3.487
		h1.557c0.545,0,1.001-0.057,1.366-0.171c0.366-0.114,0.645-0.301,0.837-0.561s0.288-0.599,0.288-1.02
		c0-0.503-0.148-0.913-0.443-1.23C103.578,51.098,102.896,50.929,101.863,50.929z"/>
	<path class="st0" d="M114.527,59.312l-0.545-1.432h-4.639l-0.545,1.463c-0.213,0.571-0.395,0.956-0.545,1.156s-0.396,0.3-0.739,0.3
		c-0.291,0-0.548-0.106-0.771-0.319s-0.335-0.454-0.335-0.724c0-0.155,0.026-0.316,0.078-0.482s0.138-0.397,0.257-0.693l2.919-7.41
		c0.083-0.212,0.183-0.468,0.3-0.767c0.116-0.298,0.241-0.546,0.373-0.743c0.133-0.197,0.307-0.357,0.521-0.479
		c0.216-0.122,0.481-0.183,0.798-0.183c0.322,0,0.591,0.061,0.806,0.183c0.216,0.122,0.39,0.279,0.521,0.471
		c0.133,0.192,0.244,0.398,0.335,0.619c0.091,0.221,0.206,0.515,0.347,0.883l2.98,7.363c0.233,0.561,0.351,0.968,0.351,1.222
		c0,0.265-0.11,0.507-0.331,0.728s-0.486,0.331-0.798,0.331c-0.182,0-0.337-0.033-0.467-0.098s-0.239-0.153-0.327-0.265
		c-0.088-0.111-0.183-0.283-0.284-0.514C114.687,59.692,114.6,59.488,114.527,59.312z M109.951,56.144h3.409l-1.721-4.709
		L109.951,56.144z"/>
	<path class="st0" d="M128.015,57.001c0,0.363-0.09,0.756-0.269,1.179s-0.461,0.838-0.845,1.245s-0.874,0.738-1.471,0.992
		c-0.597,0.254-1.292,0.382-2.086,0.382c-0.603,0-1.149-0.058-1.643-0.171c-0.493-0.114-0.94-0.292-1.343-0.533
		s-0.771-0.559-1.108-0.954c-0.302-0.358-0.559-0.759-0.771-1.203c-0.213-0.443-0.373-0.917-0.479-1.42
		c-0.106-0.503-0.159-1.038-0.159-1.603c0-0.918,0.134-1.741,0.4-2.468c0.268-0.726,0.65-1.348,1.148-1.864
		c0.498-0.517,1.082-0.91,1.751-1.179c0.67-0.27,1.383-0.405,2.141-0.405c0.924,0,1.746,0.184,2.468,0.553
		c0.721,0.368,1.273,0.824,1.657,1.366c0.384,0.542,0.576,1.055,0.576,1.537c0,0.265-0.094,0.499-0.28,0.701
		s-0.412,0.304-0.677,0.304c-0.296,0-0.518-0.07-0.666-0.21c-0.147-0.14-0.312-0.381-0.494-0.724
		c-0.301-0.565-0.655-0.989-1.062-1.269c-0.407-0.28-0.909-0.42-1.506-0.42c-0.949,0-1.706,0.361-2.269,1.082
		c-0.563,0.721-0.845,1.746-0.845,3.074c0,0.887,0.125,1.625,0.374,2.214s0.602,1.029,1.059,1.319
		c0.456,0.291,0.99,0.436,1.603,0.436c0.664,0,1.227-0.165,1.686-0.495c0.459-0.329,0.806-0.813,1.039-1.452
		c0.099-0.301,0.221-0.546,0.366-0.735c0.145-0.189,0.378-0.284,0.7-0.284c0.274,0,0.511,0.096,0.708,0.288
		S128.015,56.715,128.015,57.001z"/>
	<path class="st0" d="M132.421,50.4v4.001l4.538-4.732c0.218-0.229,0.403-0.397,0.557-0.506c0.152-0.109,0.356-0.164,0.61-0.164
		c0.332,0,0.601,0.097,0.806,0.292c0.205,0.194,0.308,0.432,0.308,0.712c0,0.337-0.174,0.672-0.521,1.004l-2.81,2.662l3.238,4.639
		c0.228,0.322,0.399,0.603,0.514,0.844c0.113,0.241,0.171,0.476,0.171,0.705c0,0.254-0.1,0.475-0.3,0.662
		c-0.2,0.187-0.471,0.28-0.813,0.28c-0.321,0-0.584-0.069-0.786-0.207c-0.202-0.137-0.373-0.32-0.514-0.549
		c-0.14-0.228-0.265-0.436-0.373-0.623l-2.732-4.203l-1.892,1.813v2.358c0,0.478-0.108,0.832-0.326,1.062
		c-0.219,0.231-0.499,0.347-0.841,0.347c-0.197,0-0.387-0.052-0.568-0.156c-0.182-0.104-0.322-0.244-0.42-0.42
		c-0.073-0.145-0.117-0.314-0.133-0.506s-0.023-0.47-0.023-0.833V50.4c0-0.467,0.103-0.817,0.308-1.051s0.483-0.35,0.837-0.35
		c0.348,0,0.629,0.115,0.845,0.346C132.313,49.576,132.421,49.928,132.421,50.4z"/>
	<path class="st0" d="M149.194,59.312l-0.545-1.432h-4.639l-0.545,1.463c-0.213,0.571-0.395,0.956-0.545,1.156s-0.396,0.3-0.739,0.3
		c-0.291,0-0.548-0.106-0.771-0.319s-0.335-0.454-0.335-0.724c0-0.155,0.026-0.316,0.078-0.482s0.138-0.397,0.257-0.693l2.919-7.41
		c0.083-0.212,0.183-0.468,0.3-0.767c0.116-0.298,0.241-0.546,0.373-0.743c0.133-0.197,0.307-0.357,0.521-0.479
		c0.216-0.122,0.481-0.183,0.798-0.183c0.322,0,0.591,0.061,0.806,0.183c0.216,0.122,0.39,0.279,0.521,0.471
		c0.133,0.192,0.244,0.398,0.335,0.619c0.091,0.221,0.206,0.515,0.347,0.883l2.98,7.363c0.233,0.561,0.351,0.968,0.351,1.222
		c0,0.265-0.11,0.507-0.331,0.728s-0.486,0.331-0.798,0.331c-0.182,0-0.337-0.033-0.467-0.098s-0.239-0.153-0.327-0.265
		c-0.088-0.111-0.183-0.283-0.284-0.514C149.354,59.692,149.267,59.488,149.194,59.312z M144.618,56.144h3.409l-1.721-4.709
		L144.618,56.144z"/>
	<path class="st0" d="M163.383,55.965v2.187c0,0.291-0.028,0.523-0.085,0.696c-0.058,0.174-0.162,0.331-0.315,0.471
		s-0.35,0.275-0.588,0.405c-0.69,0.374-1.354,0.646-1.992,0.817c-0.639,0.171-1.334,0.257-2.086,0.257
		c-0.877,0-1.677-0.135-2.397-0.405c-0.722-0.27-1.336-0.662-1.845-1.175s-0.899-1.137-1.172-1.868s-0.408-1.549-0.408-2.452
		c0-0.888,0.133-1.7,0.397-2.437c0.264-0.737,0.653-1.362,1.167-1.875s1.139-0.907,1.876-1.179c0.736-0.272,1.572-0.409,2.506-0.409
		c0.769,0,1.448,0.103,2.039,0.308c0.592,0.205,1.072,0.463,1.44,0.774c0.368,0.311,0.646,0.641,0.833,0.988
		c0.187,0.348,0.28,0.656,0.28,0.926c0,0.291-0.108,0.539-0.323,0.743c-0.216,0.205-0.474,0.308-0.774,0.308
		c-0.166,0-0.326-0.039-0.479-0.117c-0.153-0.078-0.282-0.187-0.386-0.327c-0.285-0.446-0.526-0.783-0.724-1.012
		c-0.197-0.228-0.463-0.42-0.798-0.576c-0.335-0.155-0.762-0.233-1.28-0.233c-0.534,0-1.012,0.092-1.433,0.276
		c-0.42,0.184-0.779,0.452-1.077,0.802c-0.299,0.35-0.527,0.78-0.686,1.288c-0.158,0.509-0.237,1.072-0.237,1.689
		c0,1.339,0.308,2.369,0.923,3.09c0.614,0.721,1.472,1.082,2.572,1.082c0.534,0,1.036-0.07,1.506-0.21s0.945-0.34,1.428-0.6v-1.852
		h-1.79c-0.431,0-0.756-0.065-0.977-0.195c-0.221-0.129-0.331-0.35-0.331-0.662c0-0.254,0.093-0.464,0.276-0.63
		c0.185-0.166,0.435-0.249,0.751-0.249h2.623c0.322,0,0.595,0.028,0.817,0.085c0.224,0.057,0.403,0.185,0.541,0.381
		C163.314,55.275,163.383,55.571,163.383,55.965z"/>
	<path class="st0" d="M173.104,50.976h-5.207v2.802h4.795c0.353,0,0.616,0.079,0.79,0.237c0.174,0.159,0.261,0.367,0.261,0.627
		c0,0.259-0.086,0.471-0.257,0.634s-0.436,0.245-0.794,0.245h-4.795v3.246h5.387c0.363,0,0.637,0.084,0.821,0.253
		c0.184,0.169,0.276,0.393,0.276,0.673c0,0.27-0.093,0.489-0.276,0.658c-0.185,0.168-0.458,0.253-0.821,0.253h-6.281
		c-0.504,0-0.865-0.111-1.086-0.334s-0.331-0.584-0.331-1.082V50.61c0-0.332,0.05-0.604,0.148-0.813
		c0.099-0.21,0.253-0.363,0.463-0.459c0.21-0.096,0.479-0.144,0.806-0.144h6.102c0.369,0,0.643,0.082,0.821,0.245
		c0.18,0.164,0.269,0.378,0.269,0.643c0,0.27-0.089,0.486-0.269,0.65C173.747,50.894,173.473,50.976,173.104,50.976z"/>
</g>
<polyline class="st1" points="4.505,38.511 4.505,4.505 30.409,38.621 30.409,4.723 "/>
<path class="st1" d="M68.704,6.412c5.473,2.84,9.212,8.559,9.212,15.151c0,6.569-3.714,12.271-9.156,15.122"/>
<path class="st1" d="M52.958,36.685c-5.444-2.85-9.158-8.552-9.158-15.122c0-6.591,3.738-12.309,9.21-15.149"/>
<path class="st1" d="M91.227,38.511V5.849h17.739c9.573,0,12.389,16.699-3.097,16.699c15.486,0,12.67,17.089,3.097,17.089h-5.35"/>
<polyline class="st1" points="156.631,39.215 141.65,5.638 126.947,39.637 141.909,39.637 "/>
<line class="st1" x1="169.503" y1="39.074" x2="169.503" y2="5.286"/>
<circle class="st0" cx="60.818" cy="21.617" r="4.469"/>
</svg>